<svg xmlns="http://www.w3.org/2000/svg" viewBox="0 0 23.9 16.304">
  <defs>
    <style>
      .cls-1 {
        fill: none;
      }

      .cls-2 {
        fill: #fff;
      }

      .cls-3 {
        fill: #434a54;
      }

      .cls-4 {
        fill: #f4f5f5;
      }
    </style>
  </defs>
  <g id="icone-catalogue-violet_1_" transform="translate(-646.2 -357.496)">
    <g id="Groupe_660_1_" transform="translate(669.425 357.507)">
      <path id="Tracé_706_1_" class="cls-1" d="M-11.3,2.7V14.6s2.9-3.2,9.6-3V.3C-1.6.3-7.5-.3-11.3,2.7Z"/>
      <path id="Tracé_707_1_" class="cls-2" d="M-1.9,11.3C-7.1,11.2-10,13.1-11,14V2.7C-7.8.2-2.9.4-1.9.5V11.3ZM-11.3,15l.2-.2h0s2.9-3.1,9.4-2.9h.3V.1h-.2c-.3,0-5.9-.6-9.7,2.3l-.1.1-.1.1h0V14.8Z"/>
    </g>
    <g id="Groupe_661_3_" transform="translate(650.167 357.547)">
      <path id="Tracé_708_3_" class="cls-3" d="M7.9,2.6V14.5s-2.9-3.2-9.6-3V.2C-1.7.3,4.2-.3,7.9,2.6Z"/>
      <path id="Tracé_709_3_" class="cls-4" d="M8.2,2.5h0L8,2.3C4.2-.6-1.4,0-1.7,0h-.2V11.7h.3c6.5-.2,9.4,2.9,9.4,2.9h0l.2.2.2-.2ZM7.7,14a13.756,13.756,0,0,0-8.8-2.7h-.4V.5C-.4.4,4.4.3,7.6,2.7L7.7,14Z"/>
    </g>
    <g id="Groupe_661_2_" transform="translate(650.167 357.547)">
      <path id="Tracé_708_2_" class="cls-3" d="M17.6.3V11.6c-6.7-.2-9.6,3-9.6,3V2.7C11.7-.3,17.6.3,17.6.3Z"/>
      <path id="Tracé_709_2_" class="cls-4" d="M7.7,14.7l.2.2.2-.2h0s2.9-3.1,9.4-2.9h.3V.1h-.2c-.3,0-5.9-.5-9.7,2.3l-.1.1-.1.1Zm.5-.7V2.7C11.4.2,16.3.4,17.3.5V11.3h-.4c-4.9,0-7.7,1.8-8.7,2.7Z"/>
    </g>
    <path id="Tracé_710_1_" class="cls-3" d="M668.4,360.2v9.6h-.7c-5.7-.2-8.5,2.2-9,2.7l-.1.1-.5.6-.1-.1-.5-.5h0c-.5-.5-3.3-2.9-9.1-2.7h-.7v-9.6h-1.5v13.5h23.9V360.3l-1.7-.1Z"/>
  </g>
</svg>
