<svg xmlns="http://www.w3.org/2000/svg" viewBox="0 0 26.804 18.307">
  <defs>
    <style>
      .cls-1, .cls-2 {
        fill: none;
        stroke: #434a54;
        stroke-miterlimit: 10;
        stroke-width: 0.5px;
      }

      .cls-2 {
        stroke-linecap: round;
      }

      .cls-3 {
        fill: #434a54;
      }

      .cls-4 {
        fill: #f4f5f5;
      }
    </style>
  </defs>
  <g id="Groupe_858" data-name="Groupe 858" transform="translate(0.154 0.154)">
    <line id="Ligne_28" data-name="Ligne 28" class="cls-1" x2="3.4" y2="5.7" transform="translate(10.2 5.6)"/>
    <line id="Ligne_29" data-name="Ligne 29" class="cls-1" x2="11.3" y2="2.6" transform="translate(12.4 11.9)"/>
    <line id="Ligne_30" data-name="Ligne 30" class="cls-2" x2="11.1" transform="translate(2.6 11.9)"/>
    <path id="Tracé_800" data-name="Tracé 800" class="cls-3" d="M24.4,3.3,14.8,1.1a.367.367,0,0,0-.3.1A32.3,32.3,0,0,1,9.5,9a11.482,11.482,0,0,1-5.6,2.7c-.3.1-.3.4,0,.5l8.8,2s2.9,1,6.1-2.3c2.4-2.4,5.1-7.1,5.8-8.3A1.439,1.439,0,0,0,24.4,3.3Z"/>
    <path id="Tracé_801" data-name="Tracé 801" class="cls-4" d="M18.2,2.1l-1.6-.3a.367.367,0,0,0-.3.1c-.5.9-2.8,5.5-5.1,7.7a11.482,11.482,0,0,1-5.6,2.7c-.3.1-.3.4,0,.5L6,13s3.4,1.1,6.6-2.2c2.4-2.4,5.1-7.1,5.8-8.3A.758.758,0,0,0,18.2,2.1Z"/>
    <path id="Tracé_802" data-name="Tracé 802" class="cls-4" d="M22.1,3l-1.6-.3a.367.367,0,0,0-.3.1c-.5.9-2.8,5.5-5.1,7.7a9.649,9.649,0,0,1-4.8,2.9c-.3.1-.3.4,0,.5l.9.1s2.1.8,5.3-2.4c2.4-2.4,5.1-7.1,5.8-8.3C22.4,3.2,22.3,3.1,22.1,3Z"/>
    <line id="Ligne_31" data-name="Ligne 31" class="cls-2" x2="13.1" transform="translate(13.3 14.5)"/>
    <line id="Ligne_32" data-name="Ligne 32" class="cls-2" y1="15.1" x2="15.3" transform="translate(10.2 2.7)"/>
    <line id="Ligne_33" data-name="Ligne 33" class="cls-2" y1="15.2" x2="15.4" transform="translate(0.2 0.2)"/>
    <line id="Ligne_34" data-name="Ligne 34" class="cls-2" x2="10.8" y2="2.5" transform="translate(14.2 1.1)"/>
    <line id="Ligne_35" data-name="Ligne 35" class="cls-2" x2="10.8" y2="2.5" transform="translate(2.5 11.9)"/>
    <line id="Ligne_36" data-name="Ligne 36" class="cls-1" x2="3.4" y2="5.7" transform="translate(19.5 8.7)"/>
  </g>
</svg>
