<?xml version="1.0" encoding="UTF-8" standalone="no"?>
<!-- Created with Inkscape (http://www.inkscape.org/) -->

<svg
   xmlns:dc="http://purl.org/dc/elements/1.1/"
   xmlns:cc="http://creativecommons.org/ns#"
   xmlns:rdf="http://www.w3.org/1999/02/22-rdf-syntax-ns#"
   xmlns:svg="http://www.w3.org/2000/svg"
   xmlns="http://www.w3.org/2000/svg"
   xmlns:sodipodi="http://sodipodi.sourceforge.net/DTD/sodipodi-0.dtd"
   xmlns:inkscape="http://www.inkscape.org/namespaces/inkscape"
   width="210mm"
   height="210mm"
   viewBox="0 0 210 210"
   version="1.1"
   id="svg8"
   inkscape:version="0.92.0 r15299"
   sodipodi:docname="icons.svg"
   inkscape:export-filename="D:\Plan_Interactif\icons\sallesInfo.png"
   inkscape:export-xdpi="100"
   inkscape:export-ydpi="100">
  <defs
     id="defs2" />
  <sodipodi:namedview
     id="base"
     pagecolor="#ffffff"
     bordercolor="#666666"
     borderopacity="1.0"
     inkscape:pageopacity="0.0"
     inkscape:pageshadow="2"
     inkscape:zoom="0.98994949"
     inkscape:cx="392.26559"
     inkscape:cy="1010.3331"
     inkscape:document-units="mm"
     inkscape:current-layer="g4499"
     showgrid="true"
     inkscape:window-width="1366"
     inkscape:window-height="705"
     inkscape:window-x="-8"
     inkscape:window-y="-8"
     inkscape:window-maximized="1">
    <inkscape:grid
       type="xygrid"
       id="grid7030" />
  </sodipodi:namedview>
  <metadata
     id="metadata5">
    <rdf:RDF>
      <cc:Work
         rdf:about="">
        <dc:format>image/svg+xml</dc:format>
        <dc:type
           rdf:resource="http://purl.org/dc/dcmitype/StillImage" />
        <dc:title />
      </cc:Work>
    </rdf:RDF>
  </metadata>
  <g
     inkscape:label="Calque 1"
     inkscape:groupmode="layer"
     id="layer1"
     transform="translate(0,-87)">
    <g
       id="g4499"
       transform="translate(-4.54895,-10.963433)">
      <path
         style="opacity:0.97000002;fill:#6e6e6e;fill-opacity:1;fill-rule:nonzero;stroke:#472929;stroke-width:0.12631884;stroke-linecap:butt;stroke-linejoin:round;stroke-miterlimit:4;stroke-dasharray:0.12631885, 0.25263771;stroke-dashoffset:3.75;stroke-opacity:0;paint-order:normal"
         d="m 51.384178,125.26844 c -0.409948,-0.32953 -0.874386,-0.83381 -0.92252,-1.00164 -0.03527,-0.12296 -0.02319,-0.20404 0.05345,-0.35894 0.120224,-0.243 1.441614,-1.54859 4.096079,-4.04711 1.722993,-1.62177 1.948616,-1.85151 1.902684,-1.93733 -0.02866,-0.0535 -0.487888,-0.5391 -1.020502,-1.07899 -0.906301,-0.91868 -0.980129,-0.98155 -1.151513,-0.98063 -0.10072,4.2e-4 -0.279794,0.0351 -0.397942,0.0768 -0.347522,0.12261 -0.605173,0.0985 -0.877714,-0.082 -0.283846,-0.18802 -2.57679,-2.42822 -3.604722,-3.52182 -0.657033,-0.699 -0.726241,-0.78983 -0.712194,-0.93475 0.01329,-0.13719 0.0376,-0.16269 0.167196,-0.17542 0.185623,-0.0182 0.427883,0.17526 1.692617,1.35186 1.221666,1.13653 1.503045,1.37894 1.573405,1.35549 0.07148,-0.0238 -0.0081,-0.11651 -1.270552,-1.47979 -1.128945,-1.21912 -1.353045,-1.47523 -1.443458,-1.64967 -0.06203,-0.11968 -0.05843,-0.14776 0.03401,-0.26527 0.05686,-0.0723 0.122346,-0.13143 0.145527,-0.13143 0.052,0 0.715384,0.58003 1.845891,1.61394 1.276763,1.16767 1.331548,1.2156 1.389566,1.2156 0.12315,0 0.03215,-0.1048 -1.736481,-2.00001 -0.857226,-0.91858 -1.035742,-1.17479 -0.949874,-1.36325 0.138816,-0.30466 0.326029,-0.16611 2.308486,1.70849 0.664284,0.62814 1.037121,0.94604 1.106414,0.9434 0.05748,-0.002 0.07595,-0.0155 0.04104,-0.0296 -0.03491,-0.0141 -0.05292,-0.0427 -0.04003,-0.0635 0.02868,-0.0464 -0.317883,-0.44008 -1.515863,-1.7219 -1.369329,-1.46516 -1.373764,-1.47124 -1.193564,-1.63432 0.151597,-0.13719 0.289436,-0.0978 0.624992,0.17886 0.460515,0.37962 3.818083,3.75185 4.077544,4.09536 l 0.219327,0.29037 -0.13862,0.42614 c -0.221455,0.68079 -0.244069,0.63726 0.952576,1.83341 0.867923,0.86757 1.039031,1.01678 1.136695,0.99124 0.06323,-0.0165 0.523023,-0.43065 1.021751,-0.92025 l 0.906778,-0.89018 0.04852,-0.96002 c 0.05339,-1.05637 0.07683,-1.17376 0.352747,-1.76634 0.241001,-0.51759 0.53451,-0.90332 1.108063,-1.45623 1.262119,-1.21668 2.681926,-1.69698 3.82534,-1.29403 0.849496,0.29937 1.295958,0.97568 1.297153,1.96496 0.0011,1.09749 -0.497712,2.15778 -1.47572,3.13542 -0.951791,0.95142 -1.960574,1.40153 -3.177942,1.41796 -0.240717,0.003 -0.575836,0.0203 -0.744712,0.0379 l -0.307041,0.032 -0.425607,0.45663 c -0.234083,0.25116 -0.617364,0.67057 -0.85173,0.93204 l -0.426128,0.47541 0.379814,0.35642 c 2.982663,2.79888 5.269525,4.96411 5.462028,5.17152 0.146156,0.15746 0.240008,0.30543 0.240008,0.3784 0,0.1802 -0.269115,0.55091 -0.668077,0.92028 -0.370565,0.34309 -0.508566,0.41167 -0.721051,0.35835 -0.182184,-0.0457 -0.928569,-0.77963 -2.830988,-2.78363 -1.581262,-1.6657 -2.978242,-3.05518 -3.072879,-3.05638 -0.02326,-2.5e-4 -0.229233,0.19842 -0.457715,0.44158 -0.228481,0.24316 -0.992064,1.05603 -1.696852,1.80636 -2.953569,3.14445 -3.628246,3.81483 -3.839266,3.81483 -0.05164,0 -0.203939,-0.0885 -0.338437,-0.19657 z"
         id="path4503"
         inkscape:connector-curvature="0" />
      <g
         id="g7054"
         transform="translate(67.46875,-30.427084)">
        <path
           sodipodi:nodetypes="ccccccc"
           inkscape:connector-curvature="0"
           id="path7032"
           d="m 17.78757,141.80509 h 1.578051 v 12.17083 h 18.785417 v 1.32292 H 17.778121 Z"
           style="fill:#6e6e6e;fill-opacity:1;stroke:none;stroke-width:0.26458332px;stroke-linecap:butt;stroke-linejoin:miter;stroke-opacity:1" />
        <path
           sodipodi:nodetypes="ccccc"
           inkscape:connector-curvature="0"
           id="path7034"
           d="m 20.423954,153.71134 3.175,-0.26458 -1.058333,-10.05417 -2.910417,0.26458 z"
           style="fill:#6e6e6e;fill-opacity:1;stroke:none;stroke-width:0.26458332px;stroke-linecap:butt;stroke-linejoin:miter;stroke-opacity:1" />
        <path
           sodipodi:nodetypes="ccccc"
           inkscape:connector-curvature="0"
           id="path7036"
           d="m 24.921871,153.71134 2.645833,-0.52917 -2.116666,-9.78958 -2.645834,0.52917 z"
           style="fill:#6e6e6e;fill-opacity:1;stroke:none;stroke-width:0.26458332px;stroke-linecap:butt;stroke-linejoin:miter;stroke-opacity:1" />
        <path
           sodipodi:nodetypes="ccccc"
           inkscape:connector-curvature="0"
           id="path7040"
           d="m 25.323471,141.6161 2.7734,-0.60476 2.910416,11.90625 -2.645833,0.79375 z"
           style="fill:#6e6e6e;fill-opacity:1;stroke:none;stroke-width:0.26458332px;stroke-linecap:butt;stroke-linejoin:miter;stroke-opacity:1" />
        <path
           sodipodi:nodetypes="ccccc"
           inkscape:connector-curvature="0"
           id="path7042"
           d="m 31.536454,153.71134 1.852083,-0.26458 -3.174999,-15.61042 -1.852084,0.26458 3.175,15.61042"
           style="fill:#6e6e6e;fill-opacity:1;stroke:none;stroke-width:0.26458332px;stroke-linecap:butt;stroke-linejoin:miter;stroke-opacity:1" />
        <path
           inkscape:connector-curvature="0"
           id="path7046"
           d="m 36.034371,145.50926 -3.175,0.26458 0.79375,7.9375 3.175,-0.26458 z"
           style="fill:#6e6e6e;fill-opacity:1;stroke:none;stroke-width:0.26458332px;stroke-linecap:butt;stroke-linejoin:miter;stroke-opacity:1" />
      </g>
      <g
         id="g7078"
         transform="matrix(0.42607223,0,0,0.42607223,15.595524,47.992435)">
        <path
           inkscape:connector-curvature="0"
           id="path7069"
           d="m 45.00432,185.03882 c -1.525294,-0.94723 -13.376838,-19.14567 -13.779473,-21.15884 -0.09174,-0.45871 0.0978,-2.31971 0.422555,-4.1488 0.323906,-1.82432 0.548439,-3.58632 0.498962,-3.91554 -0.08502,-0.56574 -0.176834,-0.531 -1.672852,0.63293 l -1.582891,1.23152 -0.865074,4.30597 c -0.475789,2.36829 -0.979791,4.42069 -1.120002,4.5609 -0.389798,0.3898 -1.858489,0.34755 -2.359033,-0.0679 -0.378521,-0.31414 -0.420587,-0.71333 -0.278858,-2.64628 0.0918,-1.25199 0.399228,-3.65946 0.683173,-5.34994 l 0.516268,-3.0736 1.82467,-1.6927 c 3.828875,-3.55194 5.568778,-4.79025 7.209044,-5.13077 2.196012,-0.45589 3.731638,-0.22005 4.6687,0.71701 0.421986,0.42199 1.596765,2.56993 2.610622,4.7732 l 1.843374,4.00595 3.700721,1.92762 c 2.035397,1.06018 3.85277,2.13554 4.038606,2.38969 0.755655,1.03342 0.04618,2.49807 -1.21007,2.49807 -0.730805,0 -2.536481,-0.71469 -5.695201,-2.25416 -1.796915,-0.87577 -2.833605,-1.58091 -3.641082,-2.47662 -0.620892,-0.68873 -1.188225,-1.19291 -1.260739,-1.1204 -0.07251,0.0725 -0.43256,1.37378 -0.800108,2.8917 -0.526196,2.17314 -0.604557,2.88052 -0.368599,3.32739 0.164817,0.31214 2.384956,4.03823 4.933643,8.28019 2.548686,4.24196 4.774356,8.1812 4.94593,8.75386 0.408659,1.36398 0.0069,2.27184 -1.235123,2.79078 -1.136838,0.47499 -1.181576,0.47386 -2.027163,-0.0513 z"
           style="opacity:0.97000002;fill:#6e6e6e;fill-opacity:1;fill-rule:nonzero;stroke:none;stroke-width:0.66817379;stroke-linecap:butt;stroke-linejoin:round;stroke-miterlimit:4;stroke-dasharray:0.66817382, 1.33634764;stroke-dashoffset:3.75;stroke-opacity:0;paint-order:normal" />
        <path
           inkscape:connector-curvature="0"
           id="path7071"
           d="m 23.698948,185.06248 c -1.12903,-0.7908 -1.209145,-1.31907 -0.43248,-2.85175 0.391549,-0.77268 1.519582,-2.60894 2.506737,-4.08056 2.318282,-3.45603 2.70583,-4.24405 3.742605,-7.61002 0.688843,-2.23639 0.922356,-2.71743 1.166392,-2.40282 0.167817,0.21635 0.995706,1.31658 1.839754,2.44494 l 1.534631,2.05157 -0.801116,2.0885 c -0.977829,2.54918 -5.712137,9.08312 -7.472553,10.31306 -0.816496,0.57045 -1.320496,0.58184 -2.08397,0.0471 z"
           style="opacity:0.97000002;fill:#6e6e6e;fill-opacity:1;fill-rule:nonzero;stroke:none;stroke-width:0.66817379;stroke-linecap:butt;stroke-linejoin:round;stroke-miterlimit:4;stroke-dasharray:0.66817382, 1.33634764;stroke-dashoffset:3.75;stroke-opacity:0;paint-order:normal" />
        <path
           inkscape:connector-curvature="0"
           id="path7073"
           d="m 37.931362,146.09809 c -1.138047,-0.51677 -2.475899,-2.13397 -2.684288,-3.24477 -0.55848,-2.97696 1.4449,-5.48169 4.386117,-5.48374 1.931678,-0.001 3.113662,0.61066 3.956301,2.04852 0.587881,1.00314 0.673283,1.41537 0.574927,2.77514 -0.122047,1.68728 -0.604772,2.59506 -1.890387,3.55491 -0.892644,0.66645 -3.23073,0.85486 -4.34267,0.34994 z"
           style="opacity:0.97000002;fill:#6e6e6e;fill-opacity:1;fill-rule:nonzero;stroke:none;stroke-width:0.66817379;stroke-linecap:butt;stroke-linejoin:round;stroke-miterlimit:4;stroke-dasharray:0.66817382, 1.33634764;stroke-dashoffset:3.75;stroke-opacity:0;paint-order:normal" />
      </g>
      <path
         style="opacity:0.97000002;fill:#6e6e6e;fill-opacity:1;fill-rule:nonzero;stroke:none;stroke-width:0.38524938;stroke-linecap:butt;stroke-linejoin:round;stroke-miterlimit:4;stroke-dasharray:0.3852494, 0.77049879;stroke-dashoffset:3.75;stroke-opacity:0;paint-order:normal"
         d="m 125.32895,131.18864 c -0.34648,-0.34648 -0.37824,-0.49666 -0.37824,-1.78843 0,-1.3009 -0.0317,-1.44773 -0.40841,-1.89472 -0.82324,-0.9767 -0.812,-0.85335 -0.81686,-8.96003 l -0.005,-7.55089 0.35932,-0.77162 c 1.1314,-2.42957 4.3322,-3.31774 11.19515,-3.10644 5.32725,0.16402 7.58548,0.98042 8.572,3.09899 l 0.36277,0.77907 -0.005,7.55089 c -0.005,8.10668 0.006,7.98333 -0.81685,8.96003 -0.37676,0.44699 -0.40841,0.59382 -0.40841,1.89472 0,1.29177 -0.0318,1.44195 -0.37824,1.78843 -0.32862,0.32862 -0.51798,0.37825 -1.44317,0.37825 -0.84402,0 -1.14915,-0.0662 -1.47096,-0.31939 -0.36339,-0.28585 -0.40602,-0.42337 -0.40602,-1.30984 v -0.99047 h -5.31644 -5.31644 v 0.99047 c 0,0.88647 -0.0426,1.02399 -0.40603,1.30984 -0.32181,0.25314 -0.62694,0.31939 -1.47096,0.31939 -0.92518,0 -1.11455,-0.0496 -1.44316,-0.37825 z m 4.10334,-5.25855 c 1.53088,-1.46668 0.0692,-3.96373 -1.93336,-3.30283 -1.28986,0.42569 -1.76848,2.05946 -0.90422,3.08658 0.5277,0.62713 0.89556,0.77835 1.71938,0.70678 0.46874,-0.0407 0.80069,-0.18633 1.1182,-0.49053 z m 11.40418,0.20015 c 0.93932,-0.633 1.18486,-1.74041 0.59896,-2.70139 -0.61322,-1.00579 -1.97233,-1.19159 -2.9149,-0.39846 -0.93297,0.78504 -0.89839,2.11972 0.0771,2.97623 0.67617,0.59368 1.4758,0.63783 2.23883,0.12362 z m 0.91111,-10.66678 v -3.31314 h -7.85909 -7.85908 v 3.21041 c 0,1.76572 0.0462,3.25664 0.10273,3.31314 0.0565,0.0565 3.59309,0.10274 7.85908,0.10274 h 7.75636 z"
         id="path7093"
         inkscape:connector-curvature="0" />
      <path
         style="opacity:0.97000002;fill:#6e6e6e;fill-opacity:1;fill-rule:nonzero;stroke:none;stroke-width:0.40463975;stroke-linecap:butt;stroke-linejoin:round;stroke-miterlimit:4;stroke-dasharray:0.40463976, 0.80927953;stroke-dashoffset:3.75;stroke-opacity:0;paint-order:normal"
         d="m 91.052654,238.05169 c -2.763166,-0.46527 -5.551256,-2.13353 -7.486235,-4.47939 -3.10713,-3.76692 -3.624892,-9.32663 -1.270553,-13.64316 0.72267,-1.32497 1.768866,-2.6091 2.944328,-3.61394 1.064644,-0.91011 4.090532,-2.43439 5.332693,-2.68633 1.084056,-0.21988 4.085424,-0.22542 5.230258,-0.01 4.679215,0.88186 8.926035,5.21314 9.682375,9.87491 0.69452,4.28076 -0.59369,8.29229 -3.59803,11.20435 -1.19584,1.1591 -3.00808,2.30079 -4.441758,2.79824 -1.80658,0.62685 -4.551271,0.86511 -6.393078,0.55498 z m 0.06758,-3.92039 c -0.572743,-1.4791 -1.098821,-3.42844 -1.396075,-5.17302 -0.05635,-0.3307 -0.160194,-0.63697 -0.230767,-0.68058 -0.07058,-0.0436 -0.610204,-0.12868 -1.199176,-0.18902 -1.037521,-0.1063 -1.073238,-0.0977 -1.147315,0.27594 -0.347984,1.75527 -0.658593,2.79268 -1.084689,3.62278 l -0.49849,0.97114 0.77842,0.68962 c 1.451415,1.28585 5.229012,2.94881 5.367769,2.36298 0.02886,-0.12184 -0.236498,-0.96776 -0.589677,-1.87984 z m 6.12124,1.31434 c 0.667655,-0.26382 1.396007,-0.62492 1.618559,-0.80244 l 0.40464,-0.32276 -0.473692,-0.35724 c -2.232808,-1.6839 -3.256975,-2.84621 -3.897145,-4.42279 l -0.386553,-0.95198 -1.635653,-0.0462 -1.635653,-0.0462 0.102178,0.61272 c 0.45371,2.72071 1.844488,6.31514 2.666185,6.89068 0.429805,0.30104 1.565621,0.10675 3.237134,-0.55375 z m 4.371826,-3.33685 c 0.97528,-1.36091 1.61444,-2.80843 1.93843,-4.39003 0.15732,-0.76797 0.25751,-1.44571 0.22264,-1.50608 -0.0349,-0.0604 -0.59764,0.13707 -1.2506,0.43876 -1.35641,0.62669 -3.370517,1.23678 -5.079977,1.53876 -1.363882,0.24093 -1.400242,0.32125 -0.698923,1.54397 0.747723,1.30362 3.129787,3.26354 4.00806,3.29776 0.10638,0.004 0.49354,-0.41127 0.86037,-0.92314 z m -16.871064,-0.8902 c 0.250491,-0.30685 0.655831,-1.79572 0.772154,-2.83622 l 0.103625,-0.92693 -1.390858,-0.68671 -1.390859,-0.68671 v 0.6978 c 0,0.86279 0.355928,2.11636 1.007548,3.54856 0.513826,1.12934 0.618505,1.23306 0.89839,0.89021 z m 9.585831,-4.66018 c 0,-0.85038 0.493437,-2.94421 0.9527,-4.04265 0.568187,-1.35896 1.480248,-2.69169 2.863023,-4.18353 1.291525,-1.3934 1.318479,-1.32202 -0.809012,-2.14246 -1.711675,-0.6601 -2.935462,-0.91681 -3.293592,-0.69091 -0.399631,0.25208 -1.408882,2.19979 -1.88263,3.63321 -0.536861,1.62437 -0.881876,3.64115 -1.011673,5.91373 l -0.10444,1.82865 1.278636,0.0556 c 0.703249,0.0306 1.442516,0.0703 1.642812,0.0882 0.304997,0.0273 0.364176,-0.0474 0.364176,-0.45981 z m 3.237119,0.01 c 1.117587,-0.18681 3.319664,-0.85385 4.127324,-1.25021 0.26706,-0.13106 0.82179,-0.46223 1.23273,-0.73593 l 0.74715,-0.49763 -0.21602,-0.82317 c -0.33081,-1.26055 -1.44094,-3.37397 -2.23019,-4.24572 l -0.70876,-0.78285 -1.273796,1.29342 c -1.934524,1.96432 -3.00241,4.05134 -3.235098,6.32251 -0.103333,1.0086 -0.09069,1.07187 0.19709,0.98658 0.169128,-0.0501 0.780935,-0.17028 1.35957,-0.267 z m -8.018651,-1.41963 c 0.256806,-3.52603 0.833286,-6.16469 1.81698,-8.31667 0.321506,-0.70334 0.537528,-1.32583 0.480051,-1.3833 -0.337867,-0.33787 -4.207573,1.33566 -5.415108,2.34186 l -0.535166,0.44594 0.413813,1.59268 c 0.406453,1.56436 0.899302,4.76665 0.899302,5.84323 0,0.5385 0.01575,0.55061 1.011599,0.77768 0.55638,0.12686 1.059711,0.20446 1.118513,0.17243 0.0588,-0.032 0.153309,-0.69525 0.210016,-1.47385 z m -3.961652,6.4e-4 c -0.0043,-0.65053 -0.451277,-3.69315 -0.652001,-4.43858 -0.09972,-0.37035 -0.253917,-0.61357 -0.365691,-0.57684 -0.448337,0.14735 -1.569038,2.77054 -1.569038,3.6726 0,0.43506 0.126631,0.54468 1.537631,1.33104 1.004448,0.55979 1.052754,0.56033 1.049099,0.0118 z"
         id="path7108"
         inkscape:connector-curvature="0" />
      <path
         style="fill:#747474;fill-opacity:1;stroke-width:0.01275969"
         d="m 184.43897,145.67556 c -1.70959,-1.7106 -3.12557,-3.13601 -3.14662,-3.1676 -0.0551,-0.0827 -0.0995,-0.17442 -0.13337,-0.27543 -0.0256,-0.0764 -0.0295,-0.11294 -0.0291,-0.27323 3.8e-4,-0.16507 0.004,-0.19572 0.0338,-0.28426 0.0386,-0.11466 0.11271,-0.24505 0.18769,-0.33013 l 0.0523,-0.0593 -1.03669,-1.03741 c -0.57019,-0.57058 -1.05478,-1.05356 -1.07689,-1.07328 l -0.0402,-0.0359 -0.20862,0.15651 c -0.8632,0.64753 -1.8592,1.14067 -2.89273,1.43222 -0.18297,0.0516 -0.33063,0.0889 -0.55048,0.13888 -0.11514,0.0262 -0.48836,0.0918 -0.65712,0.11544 -0.8748,0.12273 -1.82233,0.10959 -2.69868,-0.0374 -1.66843,-0.2799 -3.16105,-0.99506 -4.45313,-2.13362 -0.18796,-0.16563 -0.63417,-0.61667 -0.79856,-0.80721 -1.2639,-1.46499 -2.00148,-3.22623 -2.15521,-5.14635 -0.0224,-0.2797 -0.026,-1.04219 -0.006,-1.31643 0.12417,-1.72355 0.72791,-3.34522 1.75473,-4.71329 1.56338,-2.08294 3.9049,-3.3598 6.50695,-3.54832 0.22924,-0.0166 1.02015,-0.0168 1.24407,-2.9e-4 1.80553,0.13307 3.48763,0.7825 4.88696,1.88678 0.35849,0.2829 0.82544,0.72267 1.13303,1.06709 1.2151,1.36057 1.9783,3.04761 2.19639,4.85506 0.0486,0.40281 0.0578,0.57395 0.058,1.07819 1.4e-4,0.52184 -0.009,0.67227 -0.0651,1.12285 -0.19827,1.57935 -0.82487,3.08579 -1.80787,4.34644 l -0.14564,0.18677 1.06851,1.06845 1.0685,1.06844 0.0836,-0.0689 c 0.0459,-0.0379 0.127,-0.0904 0.18009,-0.11666 0.1521,-0.0752 0.23081,-0.092 0.42854,-0.0914 0.15932,4.8e-4 0.18065,0.003 0.28404,0.04 0.0615,0.0217 0.14475,0.0587 0.18502,0.0821 0.0562,0.0327 0.81323,0.78188 3.25996,3.22642 l 3.18673,3.18387 v 0.12769 0.12768 l -1.15797,1.15792 -1.15797,1.15791 h -0.23614 -0.23614 z m -10.02752,-6.51627 c 0.40605,-0.0454 0.69703,-0.0973 1.05267,-0.18779 1.02122,-0.25989 1.96412,-0.7473 2.79223,-1.44338 0.20943,-0.17603 0.63551,-0.60154 0.81417,-0.81305 0.93185,-1.10326 1.48623,-2.408 1.63999,-3.85981 0.0329,-0.311 0.0329,-1.08613 0,-1.38402 -0.0979,-0.88395 -0.31398,-1.64528 -0.67932,-2.39284 -0.67729,-1.3859 -1.79342,-2.51276 -3.1746,-3.20514 -0.78299,-0.3925 -1.58166,-0.61975 -2.50894,-0.71385 -0.29772,-0.0302 -0.96027,-0.0304 -1.26321,-2.9e-4 -1.36348,0.13539 -2.546,0.59151 -3.60793,1.39165 -0.26954,0.20309 -0.44416,0.35743 -0.74376,0.65737 -0.3796,0.38004 -0.63097,0.68747 -0.90844,1.11104 -1.03635,1.58206 -1.38752,3.53135 -0.97118,5.39097 0.4546,2.03056 1.8076,3.76952 3.673,4.72074 0.78989,0.40279 1.6872,0.66012 2.55831,0.73367 0.0877,0.007 0.18247,0.0156 0.21054,0.0183 0.13551,0.0129 0.94271,-0.004 1.11647,-0.0236 z"
         id="path7121"
         inkscape:connector-curvature="0" />
      <path
         style="opacity:0.97000002;fill:#747474;fill-opacity:1;fill-rule:nonzero;stroke:none;stroke-width:1.78571427;stroke-linecap:butt;stroke-linejoin:round;stroke-miterlimit:4;stroke-dasharray:1.78571431, 3.57142863;stroke-dashoffset:3.75;stroke-opacity:0;paint-order:normal"
         d=""
         id="path7160"
         inkscape:connector-curvature="0"
         transform="matrix(0.26458333,0,0,0.26458333,4.54895,97.963433)" />
      <g
         id="g7413"
         transform="translate(113.66699,-41.735727)">
        <path
           inkscape:connector-curvature="0"
           id="path7150"
           d="m 73.599139,162.85233 v -4.765 h -0.892203 -0.892203 l 0.06564,-4.16937 c 0.07304,-4.63983 0.129991,-4.92354 1.083588,-5.40008 0.432281,-0.21602 0.961514,-0.27777 2.38232,-0.27797 l 1.826584,-2.3e-4 v 5.97437 5.97437 l 0.622094,0.53781 c 0.342134,0.29579 0.712281,0.53781 0.822513,0.53781 0.110249,0 0.312778,0.11231 0.450047,0.24959 0.208841,0.20885 0.249586,0.72747 0.249586,3.17666 v 2.92707 h -2.858989 -2.858984 z"
           style="opacity:0.97000002;fill:#747474;fill-opacity:1;fill-rule:nonzero;stroke:none;stroke-width:0.39708292;stroke-linecap:butt;stroke-linejoin:round;stroke-miterlimit:4;stroke-dasharray:0.39708293, 0.79416586;stroke-dashoffset:3.75;stroke-opacity:0;paint-order:normal" />
        <path
           inkscape:connector-curvature="0"
           id="path7152"
           d="m 75.70466,146.23128 c -0.977172,-0.48172 -1.473779,-1.99335 -0.974297,-2.96559 0.819193,-1.59448 2.504861,-1.91515 3.745644,-0.71253 1.24049,1.20232 0.920265,2.93019 -0.697077,3.76111 -0.493255,0.25342 -1.471263,0.21429 -2.07427,-0.083 z"
           style="opacity:0.97000002;fill:#747474;fill-opacity:1;fill-rule:nonzero;stroke:none;stroke-width:0.39708292;stroke-linecap:butt;stroke-linejoin:round;stroke-miterlimit:4;stroke-dasharray:0.39708293, 0.79416586;stroke-dashoffset:3.75;stroke-opacity:0;paint-order:normal" />
        <path
           inkscape:connector-curvature="0"
           id="path7154"
           d="m 83.92395,143.92177 c -0.939587,-0.48378 -1.423991,-1.3314 -1.427546,-2.49797 -0.005,-1.68069 1.180272,-2.87295 2.856378,-2.87295 2.145616,0 3.501124,2.12654 2.651586,4.15979 -0.562851,1.34708 -2.626658,1.95965 -4.080418,1.21113 z"
           style="opacity:0.97000002;fill:#747474;fill-opacity:1;fill-rule:nonzero;stroke:none;stroke-width:0.39708292;stroke-linecap:butt;stroke-linejoin:round;stroke-miterlimit:4;stroke-dasharray:0.39708293, 0.79416586;stroke-dashoffset:3.75;stroke-opacity:0;paint-order:normal" />
        <path
           inkscape:connector-curvature="0"
           id="path7156"
           d="m 81.381963,165.15541 v -5.95625 h -1.015907 -1.015907 l -0.06085,-3.8517 c -0.07228,-4.57433 0.04463,-6.6291 0.408597,-7.18464 0.616782,-0.9413 0.701507,-0.95556 5.675963,-0.95556 4.358627,0 4.581747,0.0146 5.010227,0.32791 1.08374,0.79249 1.27749,2.22726 1.08712,8.05053 l -0.11814,3.61346 h -1.01473 -1.01474 v 5.95625 5.95624 h -3.970824 -3.970819 z"
           style="opacity:0.97000002;fill:#747474;fill-opacity:1;fill-rule:nonzero;stroke:none;stroke-width:0.39708292;stroke-linecap:butt;stroke-linejoin:round;stroke-miterlimit:4;stroke-dasharray:0.39708293, 0.79416586;stroke-dashoffset:3.75;stroke-opacity:0;paint-order:normal" />
        <path
           inkscape:connector-curvature="0"
           id="path7158"
           d="m 91.390186,165.19511 c 0.003,-3.38613 0.0587,-3.70689 0.68983,-3.92692 0.27173,-0.0947 0.7276,-0.39861 1.01307,-0.67529 l 0.51903,-0.50306 v -5.94141 -5.94142 l 1.98285,0.0561 1.98284,0.056 0.59818,0.59821 0.59819,0.5982 0.0561,3.89233 c 0.0308,2.14079 0.0116,4.06946 -0.0428,4.28592 -0.0886,0.35299 -0.18038,0.39359 -0.88991,0.39359 h -0.79116 v 4.8444 4.84442 h -2.85899 -2.85899 z"
           style="opacity:0.97000002;fill:#747474;fill-opacity:1;fill-rule:nonzero;stroke:none;stroke-width:0.39708292;stroke-linecap:butt;stroke-linejoin:round;stroke-miterlimit:4;stroke-dasharray:0.39708293, 0.79416586;stroke-dashoffset:3.75;stroke-opacity:0;paint-order:normal" />
        <path
           inkscape:connector-curvature="0"
           id="path7162"
           d="m 92.897366,146.35421 c -1.28353,-0.79715 -1.66662,-1.95408 -1.04837,-3.16595 0.55331,-1.08458 1.98422,-1.57154 3.03061,-1.03134 1.70188,0.87856 1.71102,3.30547 0.0158,4.17035 -0.78836,0.40219 -1.38092,0.41018 -1.99796,0.027 z"
           style="opacity:0.97000002;fill:#747474;fill-opacity:1;fill-rule:nonzero;stroke:none;stroke-width:0.39708292;stroke-linecap:butt;stroke-linejoin:round;stroke-miterlimit:4;stroke-dasharray:0.39708293, 0.79416586;stroke-dashoffset:3.75;stroke-opacity:0;paint-order:normal" />
      </g>
      <g
         id="g7203"
         transform="matrix(0.74428197,0,0,0.74428197,-34.77822,65.594067)">
        <path
           inkscape:connector-curvature="0"
           id="path7191"
           d="m 81.278117,204.77593 c -2.645969,-1.41098 -6.975735,-3.77798 -9.621703,-5.25999 -2.645971,-1.48201 -5.260877,-2.94403 -5.810909,-3.24893 -0.550031,-0.3049 -1.001048,-0.62642 -1.00226,-0.71449 -0.0031,-0.22669 15.103308,-7.32777 20.726935,-9.74311 0.780909,-0.3354 1.079571,-0.23191 6.662496,2.30877 10.946104,4.98135 15.657084,7.2722 15.561404,7.56718 -0.0525,0.16201 -0.59786,0.57418 -1.21181,0.91594 l -1.11626,0.62138 v 2.80489 c 0,2.75591 -0.0105,2.8034 -0.60136,2.71949 -0.56065,-0.0796 -0.60661,-0.23465 -0.67898,-2.29038 -0.0471,-1.33861 -0.18992,-2.20498 -0.36341,-2.20498 -0.15717,0 -4.031057,1.97841 -8.608629,4.39646 -4.57757,2.41805 -8.503261,4.46322 -8.72376,4.54483 -0.22176,0.0821 -2.550631,-0.99799 -5.211754,-2.41706 z"
           style="opacity:0.97000002;fill:#747474;fill-opacity:1;fill-rule:nonzero;stroke:none;stroke-width:0.66817379;stroke-linecap:butt;stroke-linejoin:round;stroke-miterlimit:4;stroke-dasharray:0.66817382, 1.33634764;stroke-dashoffset:3.75;stroke-opacity:0;paint-order:normal" />
        <path
           inkscape:connector-curvature="0"
           id="path7193"
           d="m 82.614464,215.99662 c -2.495455,-0.59894 -6.900977,-2.86828 -8.430766,-4.3428 l -1.324573,-1.27672 0.02577,-2.2541 c 0.01418,-1.23976 0.164512,-2.91561 0.334087,-3.7241 0.254399,-1.21292 0.396734,-1.45472 0.81395,-1.38274 0.278101,0.048 2.755175,1.334 5.504612,2.85781 2.749436,1.52382 5.416351,2.96961 5.926478,3.21287 l 0.927503,0.44229 4.546848,-2.53809 c 6.530041,-3.64513 7.833487,-4.27716 7.977952,-3.86844 0.268793,0.76048 0.665777,3.90746 0.666732,5.28535 0.0019,2.55381 -1.274167,3.89329 -5.752275,6.03875 -4.034933,1.93314 -7.5791,2.42288 -11.216322,1.54992 z"
           style="opacity:0.97000002;fill:#747474;fill-opacity:1;fill-rule:nonzero;stroke:none;stroke-width:0.66817379;stroke-linecap:butt;stroke-linejoin:round;stroke-miterlimit:4;stroke-dasharray:0.66817382, 1.33634764;stroke-dashoffset:3.75;stroke-opacity:0;paint-order:normal" />
        <path
           inkscape:connector-curvature="0"
           id="path7195"
           d="m 104.18311,205.94907 c -0.41226,-0.41226 -0.41226,-1.35172 0,-1.76398 0.71025,-0.71025 2.08471,-0.1942 2.08471,0.78272 0,1.02191 -1.38986,1.67611 -2.08471,0.98126 z"
           style="opacity:0.97000002;fill:#747474;fill-opacity:1;fill-rule:nonzero;stroke:none;stroke-width:0.66817379;stroke-linecap:butt;stroke-linejoin:round;stroke-miterlimit:4;stroke-dasharray:0.66817382, 1.33634764;stroke-dashoffset:3.75;stroke-opacity:0;paint-order:normal" />
        <path
           inkscape:connector-curvature="0"
           id="path7197"
           d="m 103.68502,210.37244 c -0.52223,-0.45305 -0.54429,-0.59533 -0.26314,-1.69722 l 0.30688,-1.20271 h 1.32459 1.32459 l 0.34555,1.19346 c 0.4202,1.45136 0.14415,1.85055 -1.42529,2.06105 -0.77681,0.10419 -1.18871,0.0137 -1.61318,-0.35458 z"
           style="opacity:0.97000002;fill:#747474;fill-opacity:1;fill-rule:nonzero;stroke:none;stroke-width:0.66817379;stroke-linecap:butt;stroke-linejoin:round;stroke-miterlimit:4;stroke-dasharray:0.66817382, 1.33634764;stroke-dashoffset:3.75;stroke-opacity:0;paint-order:normal" />
      </g>
      <path
         style="opacity:0.97000002;fill:#747474;fill-opacity:1;fill-rule:nonzero;stroke:none;stroke-width:0.35610309;stroke-linecap:butt;stroke-linejoin:round;stroke-miterlimit:4;stroke-dasharray:0.35610311, 0.71220622;stroke-dashoffset:3.75;stroke-opacity:0;paint-order:normal"
         d="m 132.26575,200.43787 c -0.65878,-0.26387 -1.17552,-0.73911 -1.59067,-1.46295 l -0.42151,-0.73493 v -16.66563 -16.66563 l 0.43331,-0.75559 c 0.2841,-0.49539 0.66114,-0.90008 1.09486,-1.17514 l 0.66155,-0.41954 h 16.85707 c 16.28955,0 16.87487,0.009 17.38556,0.27102 0.59702,0.30617 1.00256,0.71154 1.43886,1.43827 l 0.29931,0.49855 v 16.80806 16.80807 l -0.29931,0.49854 c -0.4363,0.72673 -0.84184,1.13211 -1.43886,1.43828 -0.51095,0.26203 -1.08505,0.27072 -17.30661,0.26199 -10.15664,-0.006 -16.91051,-0.062 -17.11356,-0.14337 z m 11.96878,-6.63563 c 0.23788,-0.21529 0.26049,-0.51823 0.26049,-3.48982 v -3.25407 h 0.93347 0.93347 l -0.0432,-4.38007 c -0.0415,-4.20643 -0.0557,-4.40345 -0.35879,-4.97014 -0.64056,-1.19771 -1.83764,-1.90264 -3.23094,-1.90264 -1.23188,0 -2.38537,0.76987 -3.01493,2.01222 -0.34474,0.68032 -0.34695,0.71192 -0.34695,4.96266 v 4.27797 h 0.92587 0.92586 v 3.22933 c 0,3.91133 -0.0693,3.75029 1.61333,3.75029 0.86261,0 1.20555,-0.0577 1.40233,-0.23573 z m 13.77275,-2.25547 c 1.18595,-1.21347 2.15628,-2.29629 2.15628,-2.40626 0,-0.30172 -0.32837,-0.37286 -1.72095,-0.37286 h -1.27032 v -2.28614 c 0,-2.54481 -0.1058,-2.95305 -0.86746,-3.34691 -0.5755,-0.29761 -1.16535,-0.15787 -1.62141,0.38412 -0.35395,0.42064 -0.35995,0.46802 -0.35995,2.83835 v 2.41058 h -1.32597 c -2.23877,0 -2.2402,-0.01 0.39732,2.68554 1.23787,1.26494 2.29691,2.2999 2.35343,2.2999 0.0565,0 1.07307,-0.99284 2.25903,-2.20632 z m -1.54676,-11.82437 c 0.58455,-0.30228 0.71005,-0.91107 0.71097,-3.44899 l 8e-4,-2.16725 1.44846,-0.0406 c 1.04538,-0.0293 1.46582,-0.093 1.51089,-0.22884 0.0345,-0.10414 -0.94661,-1.20472 -2.19626,-2.46355 l -2.25872,-2.27533 -2.18392,2.2078 c -1.48147,1.49766 -2.16818,2.29005 -2.13496,2.46356 0.0427,0.22294 0.23613,0.26097 1.50734,0.29636 l 1.45835,0.0406 v 2.18506 c 0,2.71768 0.0575,3.02763 0.62612,3.37437 0.53412,0.32569 0.96001,0.34171 1.51094,0.0568 z m -12.81516,-5.34035 c 0.57127,-0.15871 1.47039,-1.01376 1.69583,-1.61271 0.38368,-1.01941 -0.0205,-2.34316 -0.92641,-3.03414 -0.47764,-0.36431 -0.6539,-0.41078 -1.55783,-0.41078 -0.89757,0 -1.08188,0.0477 -1.54365,0.39996 -1.33984,1.02194 -1.45926,2.88505 -0.25762,4.0192 0.74076,0.69916 1.60459,0.91214 2.58968,0.63847 z"
         id="path7234"
         inkscape:connector-curvature="0" />
      <g
         id="g7278"
         transform="translate(47.571747,42.228203)">
        <g
           style="fill:#6a6a6a;fill-opacity:1"
           transform="translate(-64.505427,-41.609447)"
           id="g7247">
          <path
             inkscape:connector-curvature="0"
             id="path7263"
             d="m 163.24603,250.11476 c -4.65005,-0.87385 -8.71095,-4.26495 -10.25591,-8.56433 -0.62645,-1.74331 -0.74668,-2.49323 -0.7462,-4.65408 3.9e-4,-1.76002 0.0317,-2.13623 0.25094,-3.01625 1.17815,-4.72881 4.45494,-8.31318 8.98752,-9.83114 2.37033,-0.79383 5.25851,-0.86482 7.69031,-0.18902 2.40674,0.66882 4.76498,2.17243 6.51749,4.15553 2.20133,2.49097 3.37739,5.58365 3.37717,8.88088 -1.1e-4,2.28533 -0.47249,4.24306 -1.4958,6.19984 -1.81511,3.4709 -4.84339,5.84523 -8.71636,6.83408 -0.89068,0.22741 -1.35172,0.27602 -2.91041,0.30691 -1.33773,0.0265 -2.08722,-0.007 -2.69875,-0.12242 z m 4.1012,-1.78647 c 2.516,-0.37924 4.75507,-1.54852 6.5556,-3.42342 2.16177,-2.25107 3.26028,-4.94944 3.26028,-8.00852 0,-7.34791 -6.69851,-12.88912 -13.81364,-11.42704 -4.39933,0.90401 -7.94836,4.40335 -9.00178,8.87575 -0.264,1.12084 -0.31683,3.2886 -0.10923,4.48187 0.41368,2.37779 1.39093,4.28595 3.11278,6.07794 2.6327,2.73995 6.2688,3.98524 9.99599,3.42342 z m -7.97044,-4.63333 c -0.2588,-0.17441 -0.37894,-0.35382 -0.44295,-0.66146 -0.0483,-0.23218 -0.0742,-3.08915 -0.0574,-6.34881 0.0275,-5.35094 0.048,-5.9587 0.21098,-6.25636 0.32946,-0.60161 1.26753,-0.84737 2.02554,-0.53065 0.48122,0.20106 0.71932,0.62041 2.72413,4.79776 0.9555,1.99096 1.76387,3.62211 1.79636,3.62479 0.0325,0.003 0.86259,-1.67391 1.84465,-3.72575 0.98206,-2.05185 1.91868,-3.92795 2.08136,-4.16913 0.44526,-0.66008 1.29218,-0.86528 2.06254,-0.49973 0.744,0.35306 0.72224,0.15858 0.75614,6.75907 0.0167,3.25966 -0.009,6.11663 -0.0574,6.34881 -0.19686,0.9461 -1.43615,1.20984 -2.06088,0.43859 -0.16643,-0.20546 -0.18386,-0.62981 -0.19406,-4.72365 l -0.0112,-4.49792 -1.7311,3.4925 c -1.04407,2.10642 -1.84094,3.58701 -2.00788,3.73063 -0.18443,0.15866 -0.41412,0.23812 -0.68832,0.23812 -0.27499,0 -0.50249,-0.079 -0.68567,-0.23812 -0.16164,-0.14042 -0.98572,-1.67124 -2.00827,-3.73063 l -1.73414,-3.4925 -0.0108,4.49792 c -0.01,4.09419 -0.0272,4.51818 -0.19367,4.72365 -0.41617,0.51377 -1.05556,0.60184 -1.61793,0.22287 z"
             style="fill:#6a6a6a;fill-opacity:1;stroke-width:0.10583334" />
          <path
             inkscape:connector-curvature="0"
             id="path7261"
             d="m 163.98686,250.22065 c -0.11642,-0.028 -0.59267,-0.1237 -1.05833,-0.2127 -5.15448,-0.98516 -9.36405,-5.16324 -10.4964,-10.41786 -0.2704,-1.25482 -0.27025,-4.13334 2.9e-4,-5.3889 1.14413,-5.30981 5.16836,-9.36921 10.44319,-10.53447 1.23243,-0.27225 3.56477,-0.32647 4.82704,-0.11221 2.46937,0.41915 4.9442,1.60015 6.73035,3.21175 2.44662,2.20752 4.00369,5.0175 4.49332,8.10893 0.20263,1.27934 0.1432,3.62377 -0.12233,4.82575 -1.1462,5.18858 -5.10336,9.14589 -10.31921,10.31963 -0.76909,0.17307 -4.01042,0.31725 -4.49792,0.20008 z m 4.41771,-2.09064 c 5.2105,-1.35078 8.75854,-5.90147 8.75854,-11.23366 0,-7.89894 -7.69175,-13.56055 -15.08564,-11.10397 -4.77193,1.58544 -7.98603,6.05441 -7.98603,11.10397 0,5.02352 3.15854,9.38803 7.96057,11.00002 1.94579,0.65318 4.38777,0.74299 6.35256,0.23364 z m -8.93942,-4.35498 c -0.15861,-0.0892 -0.33721,-0.25346 -0.39688,-0.36495 -0.0706,-0.13197 -0.10849,-2.40675 -0.10849,-6.51735 v -6.31463 l 0.35148,-0.35148 c 0.60827,-0.60827 1.6581,-0.59687 2.23404,0.0242 0.14198,0.15312 1.1066,2.03131 2.1436,4.17376 1.037,2.14245 1.91266,3.89651 1.9459,3.89792 0.0332,0.001 0.90601,-1.75205 1.93949,-3.89656 1.03347,-2.14452 1.99471,-4.02385 2.13608,-4.17631 0.57486,-0.61997 1.62517,-0.63081 2.23292,-0.0231 l 0.35149,0.35148 v 6.33704 c 0,6.94028 0.0274,6.63891 -0.62902,6.91082 -0.43666,0.18087 -0.96839,0.0613 -1.30921,-0.29447 l -0.28197,-0.29431 -0.0276,-4.50508 -0.0276,-4.50508 -1.64042,3.37773 c -0.90223,1.85776 -1.76413,3.51529 -1.91534,3.6834 -0.49391,0.54914 -1.18069,0.54839 -1.67265,-0.002 -0.15121,-0.16911 -1.01311,-1.82543 -1.91534,-3.68073 l -1.64042,-3.37325 -0.0276,4.51472 -0.0276,4.51472 -0.30458,0.2918 c -0.37278,0.35715 -0.99533,0.45489 -1.41033,0.22143 z"
             style="fill:#6a6a6a;fill-opacity:1;stroke-width:0.10583334" />
          <path
             inkscape:connector-curvature="0"
             id="path7259"
             d="m 164.03978,250.21355 c -3.38158,-0.53543 -5.92111,-1.81173 -8.09993,-4.0708 -2.45635,-2.54684 -3.75265,-5.74092 -3.75258,-9.2464 1.3e-4,-6.36656 4.43145,-11.8499 10.68834,-13.22577 1.20229,-0.26438 3.54099,-0.32435 4.77126,-0.12233 5.5146,0.9055 9.98868,5.21123 11.17571,10.75519 0.26903,1.25646 0.26868,4.0367 -6.3e-4,5.28807 -1.1822,5.49258 -5.50776,9.64343 -10.97214,10.52897 -0.90762,0.14709 -3.12652,0.20129 -3.81,0.0931 z m 3.4578,-1.88095 c 4.52506,-0.79636 8.0806,-4.03683 9.32191,-8.49583 0.26474,-0.951 0.28824,-1.19073 0.28824,-2.94042 0,-1.75536 -0.023,-1.98813 -0.2928,-2.96333 -1.48337,-5.36178 -6.32668,-8.96504 -11.69543,-8.70102 -5.03351,0.24753 -9.30699,3.72941 -10.67919,8.70102 -0.26839,0.97241 -0.29226,1.213 -0.29403,2.96333 -0.002,2.09033 0.13459,2.84987 0.80098,4.45063 2.03636,4.89155 7.42051,7.88842 12.55032,6.98562 z m -7.97385,-4.55261 c -0.18459,-0.0803 -0.387,-0.24199 -0.44979,-0.35932 -0.078,-0.14573 -0.11416,-2.20799 -0.11416,-6.50924 v -6.29592 l 0.27238,-0.32371 c 0.52649,-0.6257 1.5241,-0.68893 2.17918,-0.13811 0.32479,0.2731 1.35827,2.28499 3.5968,7.00196 l 0.62531,1.31763 1.90805,-3.96346 c 1.04943,-2.17991 2.03428,-4.0955 2.18856,-4.25687 0.59942,-0.62698 1.60067,-0.63889 2.21323,-0.0263 l 0.35149,0.35148 v 6.33704 c 0,7.01326 0.0337,6.67516 -0.68825,6.91341 -0.46993,0.15509 -1.01841,-0.008 -1.32093,-0.39246 -0.20615,-0.26208 -0.21345,-0.4229 -0.21722,-4.7813 l -0.004,-4.5101 -1.78281,3.61563 c -1.52987,3.10265 -1.82888,3.63945 -2.10751,3.78354 -0.41009,0.21207 -0.68375,0.21202 -1.09409,-2.1e-4 -0.27911,-0.14434 -0.57672,-0.67883 -2.10671,-3.78354 l -1.78169,-3.61542 -0.005,4.55884 -0.005,4.55884 -0.23813,0.22307 c -0.24104,0.2258 -0.72966,0.45228 -0.95939,0.44469 -0.069,-0.002 -0.27643,-0.0698 -0.46103,-0.15014 z"
             style="fill:#6a6a6a;fill-opacity:1;stroke-width:0.10583334" />
          <path
             inkscape:connector-curvature="0"
             id="path7257"
             d="m 163.45769,250.11654 c -4.15847,-0.69709 -7.87444,-3.39912 -9.76234,-7.09858 -0.96535,-1.89167 -1.39214,-3.50676 -1.48177,-5.60746 -0.22646,-5.30729 2.75115,-10.29616 7.53995,-12.63289 5.09964,-2.48841 11.01441,-1.52944 15.14147,2.45492 4.96209,4.79053 5.57019,12.37288 1.42859,17.81293 -1.65313,2.17141 -4.32038,3.98741 -6.92506,4.71493 -1.8564,0.51852 -4.15147,0.6561 -5.94084,0.35615 z m 4.13436,-1.79434 c 0.51379,-0.0896 1.29393,-0.28626 1.73365,-0.43702 4.28313,-1.46851 7.44958,-5.48192 7.81489,-9.90521 0.30039,-3.63728 -0.96758,-7.02965 -3.55771,-9.5184 -2.39542,-2.30166 -5.22549,-3.38107 -8.47086,-3.23084 -5.32192,0.24635 -9.84259,4.21442 -10.86548,9.5373 -0.19274,1.00297 -0.21965,2.98556 -0.0544,4.00882 0.56064,3.47188 2.82916,6.61608 6.03766,8.36825 0.82086,0.44827 2.39902,0.99076 3.43356,1.18028 1.04357,0.19118 2.82242,0.18974 3.92871,-0.003 z m -7.94182,-4.50011 c -0.17324,-0.0517 -0.3984,-0.20237 -0.50036,-0.33486 -0.17182,-0.22324 -0.18556,-0.70454 -0.18774,-6.575 l -0.002,-6.33413 0.35148,-0.35148 c 0.60067,-0.60067 1.62542,-0.58817 2.21417,0.027 0.15409,0.16101 1.11962,2.03105 2.14564,4.15565 1.02601,2.1246 1.89779,3.89613 1.9373,3.93673 0.0395,0.0406 0.92776,-1.71399 1.9739,-3.89908 1.41468,-2.95484 1.98878,-4.04901 2.2404,-4.26994 0.64668,-0.56779 1.67233,-0.51196 2.20406,0.11997 l 0.26805,0.31856 v 6.31833 c 0,6.99259 0.0335,6.65649 -0.68825,6.89471 -0.46993,0.15509 -1.01841,-0.008 -1.32093,-0.39246 -0.20604,-0.26194 -0.21355,-0.4252 -0.22011,-4.7813 l -0.007,-4.5101 -1.81884,3.65125 -1.81883,3.65125 -0.42334,0.14559 c -0.36968,0.12713 -0.47446,0.12412 -0.82677,-0.0238 -0.39117,-0.16423 -0.45772,-0.27967 -2.18875,-3.79683 l -1.7853,-3.62745 -0.007,4.50082 c -0.008,4.98875 0.0122,4.84127 -0.70564,5.14119 -0.39595,0.16544 -0.39765,0.16551 -0.8337,0.0354 z"
             style="fill:#6a6a6a;fill-opacity:1;stroke-width:0.10583334" />
          <path
             inkscape:connector-curvature="0"
             id="path7255"
             d="m 163.61644,250.12153 c -4.31906,-0.68291 -7.91514,-3.27119 -9.93857,-7.15331 -2.67279,-5.12797 -1.66924,-11.44759 2.47617,-15.593 5.13032,-5.13032 13.24266,-5.28413 18.52477,-0.35122 1.78915,1.67087 2.97128,3.50865 3.71262,5.77176 2.22485,6.79186 -1.27417,14.05279 -8.01919,16.64088 -1.98584,0.76197 -4.59524,1.02651 -6.7558,0.68489 z m 4.89012,-1.98681 c 4.09716,-1.07715 7.3428,-4.37036 8.38913,-8.5121 0.51885,-2.05381 0.37109,-4.6455 -0.38162,-6.69363 -0.3035,-0.82582 -0.82621,-1.85966 -1.31252,-2.59594 -0.55055,-0.83354 -1.91945,-2.25571 -2.79171,-2.90034 -3.9066,-2.88711 -9.02493,-2.98723 -13.21146,-0.25842 -0.79483,0.51807 -2.62502,2.35302 -3.15058,3.15876 -1.12775,1.72897 -1.7409,3.46318 -1.94635,5.50497 -0.59275,5.89091 3.56824,11.37226 9.4769,12.48407 1.2966,0.24398 3.62409,0.15549 4.92821,-0.18737 z m -8.87305,-4.31579 c -0.70631,-0.20447 -0.68169,0.0595 -0.6497,-6.96699 l 0.0289,-6.34156 0.25769,-0.27424 c 0.57828,-0.61543 1.7138,-0.57504 2.28231,0.0812 0.17463,0.20157 1.1477,2.08832 2.16238,4.19279 1.01468,2.10446 1.87444,3.84457 1.91058,3.86691 0.0361,0.0223 0.89664,-1.69946 1.91221,-3.82622 1.01558,-2.12675 1.98938,-4.03178 2.164,-4.23339 0.56846,-0.65631 1.70399,-0.69675 2.28231,-0.0813 l 0.25769,0.27424 0.0289,6.34156 c 0.026,5.70755 0.0117,6.36781 -0.14317,6.60414 -0.35757,0.54571 -1.40414,0.53662 -1.83881,-0.016 -0.21008,-0.26707 -0.21673,-0.40857 -0.2248,-4.78531 l -0.008,-4.5101 -1.79103,3.63026 c -1.7257,3.49783 -1.80551,3.63635 -2.18773,3.79684 -0.34541,0.14504 -0.45142,0.14775 -0.82003,0.021 l -0.42333,-0.14559 -1.81751,-3.65125 -1.8175,-3.65125 -0.008,4.53251 -0.008,4.53252 -0.30936,0.30936 c -0.17015,0.17015 -0.38057,0.30936 -0.4676,0.30936 -0.087,0 -0.22166,0.0195 -0.29918,0.0433 -0.0775,0.0238 -0.2902,4e-5 -0.47263,-0.0528 z"
             style="fill:#6a6a6a;fill-opacity:1;stroke-width:0.10583334" />
          <path
             inkscape:connector-curvature="0"
             id="path7253"
             d="m 163.72228,250.12695 c -4.40117,-0.65624 -8.17925,-3.38866 -10.15814,-7.34668 -0.8068,-1.6137 -1.37356,-4.04152 -1.37356,-5.88392 0,-4.94312 2.87454,-9.67041 7.25448,-11.93027 1.74692,-0.90134 2.97779,-1.26847 4.93773,-1.47277 7.08757,-0.73879 13.67419,4.62386 14.5739,11.86568 0.49695,3.99994 -0.92463,8.09953 -3.81495,11.00168 -2.92686,2.93884 -7.29866,4.38071 -11.41946,3.76628 z m 3.70416,-1.75268 c 3.19598,-0.50747 6.22531,-2.51022 7.97737,-5.27401 4.22384,-6.66289 0.72094,-15.49681 -6.97195,-17.58251 -1.30612,-0.35412 -3.58078,-0.40628 -4.99249,-0.11449 -2.32328,0.4802 -4.12235,1.43844 -5.84155,3.11136 -1.57621,1.53377 -2.65843,3.39378 -3.19313,5.48797 -1.64068,6.4259 2.39851,12.89304 8.90568,14.25885 1.12211,0.23553 3.01635,0.28745 4.11607,0.11283 z m -7.62,-4.5397 c -0.36763,-0.0821 -0.58345,-0.23137 -0.72538,-0.50188 -0.0871,-0.16609 -0.12117,-1.96862 -0.12089,-6.40292 3.8e-4,-5.92448 0.009,-6.18526 0.20601,-6.50895 0.11308,-0.18547 0.30663,-0.39127 0.4301,-0.45735 0.28534,-0.15271 1.29278,-0.15612 1.57453,-0.005 0.3976,0.21279 0.71744,0.78714 2.55517,4.58834 1.00735,2.08365 1.86262,3.80765 1.90059,3.83111 0.038,0.0235 0.87142,-1.63371 1.85211,-3.68261 0.98069,-2.04891 1.89385,-3.90267 2.02923,-4.11948 0.35448,-0.5677 0.66192,-0.73217 1.36863,-0.73217 0.65977,0 1.04747,0.19932 1.28439,0.66032 0.17011,0.33102 0.17967,12.51266 0.0101,12.86288 -0.279,0.57619 -1.28038,0.66156 -1.78938,0.15256 l -0.30936,-0.30936 -0.01,-4.53252 -0.01,-4.53251 -1.71014,3.46394 c -0.94058,1.90517 -1.83679,3.59045 -1.99157,3.74506 -0.39366,0.39323 -1.05361,0.39407 -1.44583,0.002 -0.15359,-0.15359 -1.04981,-1.83887 -1.99159,-3.74505 l -1.71234,-3.4658 -0.01,4.51847 -0.01,4.51847 -0.23813,0.27235 c -0.26974,0.30851 -0.74632,0.46794 -1.13771,0.38059 z"
             style="fill:#6a6a6a;fill-opacity:1;stroke-width:0.10583334" />
          <path
             inkscape:connector-curvature="0"
             id="path7251"
             d="m 164.41019,250.21023 c -0.83156,-0.0755 -2.17446,-0.359 -2.98553,-0.63018 -3.84484,-1.28551 -6.94869,-4.23865 -8.34002,-7.93506 -2.47169,-6.56667 0.50282,-13.9158 6.84669,-16.91613 4.25333,-2.01161 9.09621,-1.65155 13.03783,0.96934 3.01216,2.00286 5.14586,5.20954 5.85192,8.7947 0.2465,1.25163 0.24078,3.78117 -0.0112,4.94037 -0.63369,2.91554 -1.84871,5.14029 -3.88095,7.10621 -2.73358,2.64437 -6.6753,4.01992 -10.51877,3.67075 z m 3.34721,-1.89272 c 1.16684,-0.22135 1.95474,-0.49682 3.10666,-1.08616 4.96141,-2.53834 7.45337,-8.23822 5.91802,-13.53637 -1.2397,-4.27797 -4.79111,-7.52955 -9.11095,-8.34178 -1.27008,-0.2388 -3.54791,-0.16719 -4.75449,0.14948 -4.84755,1.27223 -8.29621,5.27091 -8.83117,10.23966 -0.50608,4.70042 2.00552,9.2783 6.30502,11.49213 0.99033,0.50993 2.33531,0.96613 3.33179,1.1301 0.97258,0.16005 3.07244,0.13555 4.03512,-0.0471 z m -8.48826,-4.79843 -0.30936,-0.30936 0.004,-6.17293 c 0.005,-6.75093 -5.6e-4,-6.69308 0.61761,-7.01275 0.17736,-0.0917 0.58154,-0.1656 0.9059,-0.1656 0.49187,0 0.63621,0.0466 0.90119,0.29104 0.30601,0.28228 1.06174,1.75163 3.23701,6.29369 0.5218,1.08954 0.97675,1.98251 1.01101,1.98437 0.0343,0.002 0.34001,-0.58001 0.67946,-1.29306 2.31651,-4.86605 3.3152,-6.82347 3.59276,-7.0418 0.36352,-0.28594 1.27534,-0.32142 1.76416,-0.0686 0.61818,0.31967 0.61308,0.26182 0.61761,7.01275 l 0.004,6.17293 -0.30936,0.30936 c -0.41209,0.41209 -1.11846,0.43651 -1.56328,0.054 l -0.29694,-0.25533 -0.0529,-4.58654 -0.0529,-4.58655 -0.2266,0.47625 c -1.42912,3.00367 -3.25308,6.56244 -3.46586,6.76233 -0.39817,0.37407 -1.04933,0.34958 -1.43457,-0.0539 -0.16039,-0.16801 -1.02227,-1.80566 -1.91528,-3.63923 -0.893,-1.83356 -1.66215,-3.37899 -1.70921,-3.43429 -0.0471,-0.0553 -0.0856,1.93671 -0.0856,4.42668 v 4.52723 l -0.30936,0.30936 c -0.25329,0.25329 -0.39863,0.30936 -0.80189,0.30936 -0.40327,0 -0.5486,-0.0561 -0.80189,-0.30936 z"
             style="fill:#6a6a6a;fill-opacity:1;stroke-width:0.10583334" />
          <path
             inkscape:connector-curvature="0"
             id="path7249"
             d="m 164.19853,250.17446 c -4.97407,-0.55821 -9.24237,-3.80601 -11.05223,-8.40977 -1.16694,-2.96836 -1.20696,-6.50561 -0.10735,-9.48793 1.66432,-4.51387 5.69326,-7.85739 10.45597,-8.67714 1.18203,-0.20345 3.50866,-0.15154 4.73587,0.10566 4.73089,0.99152 8.62983,4.50576 10.14042,9.13992 0.49439,1.51669 0.63376,2.44346 0.62512,4.15699 -0.025,4.95181 -2.6608,9.33764 -7.01905,11.67916 -2.24137,1.2042 -5.2342,1.77867 -7.77875,1.49311 z m 2.71453,-1.73307 c 0.38703,-0.0287 1.08492,-0.14949 1.55085,-0.26846 3.93758,-1.00535 7.18422,-4.16215 8.32334,-8.09304 1.0883,-3.75548 0.19452,-7.74784 -2.43895,-10.89441 -1.14719,-1.3707 -3.31804,-2.8405 -5.06977,-3.43253 -2.30005,-0.77735 -5.14195,-0.75802 -7.39242,0.0503 -5.08825,1.82754 -8.39313,6.99149 -7.81307,12.20811 0.55715,5.01052 4.00325,8.96811 8.88835,10.20759 0.69942,0.17746 2.38672,0.35201 2.93047,0.30316 0.17463,-0.0157 0.63417,-0.052 1.0212,-0.0807 z m -7.60342,-4.86833 -0.29695,-0.25537 -0.032,-6.12108 c -0.0222,-4.25175 0.004,-6.24384 0.0851,-6.52303 0.15536,-0.53303 0.6156,-0.81422 1.33351,-0.81475 1.02527,-7.5e-4 1.02169,-0.006 3.21701,4.52683 1.07691,2.22348 1.98541,4.04327 2.0189,4.04398 0.0335,7.4e-4 0.9397,-1.81937 2.01381,-4.04462 2.18879,-4.53453 2.18341,-4.52694 3.20617,-4.52619 0.71792,5.3e-4 1.17815,0.28172 1.33351,0.81475 0.0814,0.27919 0.10738,2.27128 0.0851,6.52303 l -0.032,6.12108 -0.29694,0.25537 c -0.40524,0.34851 -1.06675,0.34868 -1.50223,4.3e-4 l -0.3175,-0.25394 -0.0529,-4.58745 -0.0529,-4.58741 -0.54251,1.11125 c -1.98025,4.05623 -2.93929,5.90442 -3.1715,6.11187 -0.32212,0.28778 -0.94075,0.31767 -1.30432,0.063 -0.15915,-0.11147 -0.88892,-1.46735 -2.00792,-3.73062 l -1.75792,-3.55551 -0.0529,4.58741 -0.0529,4.58741 -0.3175,0.25394 c -0.43547,0.34829 -1.09698,0.34812 -1.50222,-4.2e-4 z"
             style="fill:#6a6a6a;fill-opacity:1;stroke-width:0.10583334" />
        </g>
      </g>
      <g
         id="g7291"
         transform="matrix(0.63277184,0,0,0.63277184,-78.653158,107.55475)"
         style="fill:#6a6a6a;fill-opacity:1;stroke:none;stroke-opacity:1">
        <path
           style="fill:#6a6a6a;fill-opacity:1;stroke:none;stroke-width:0.26458332;stroke-opacity:1"
           d="m 197.49472,282.79859 c -6.01926,-1.94831 -9.78958,-6.94995 -9.78958,-12.9867 0,-3.91499 1.17478,-6.73125 4.00407,-9.5988 3.2935,-3.33804 7.63849,-4.69735 12.11533,-3.79023 1.20823,0.24482 2.22922,0.40901 2.26886,0.36486 0.0396,-0.0442 0.74162,-1.41993 1.55996,-3.05728 l 1.48789,-2.977 -1.1903,-2.37005 -1.19031,-2.37004 -1.09435,0.38611 c -1.5223,0.5371 -2.25278,0.48312 -2.73261,-0.20193 -0.59034,-0.84283 -0.52911,-2.46973 0.11729,-3.11612 0.49455,-0.49455 0.88195,-0.52917 5.92073,-0.52917 5.86039,0 6.36607,0.11748 5.718,1.3284 -0.38474,0.7189 -1.56258,1.20308 -3.49188,1.43545 l -1.51044,0.18192 0.97315,1.96669 0.97315,1.9667 h 11.6145 11.61451 l -0.15769,-0.59531 c -0.0867,-0.32742 -0.29981,-1.51804 -0.47351,-2.64583 l -0.31583,-2.05052 h -1.77019 c -0.9736,0 -2.40103,-0.11964 -3.17207,-0.26586 -2.50479,-0.47502 -4.08643,-2.27756 -3.02632,-3.44897 0.6135,-0.67792 1.28209,-0.65531 2.27156,0.0768 0.70799,0.52384 1.21348,0.61119 4.21042,0.7276 1.90067,0.0738 3.53155,0.25846 3.69029,0.41777 0.15645,0.15701 0.52684,1.70242 0.82308,3.43424 0.29625,1.73182 0.94764,4.93033 1.44754,7.1078 0.49991,2.17747 0.90892,4.00414 0.90892,4.05927 0,0.0551 0.62508,0.0236 1.38906,-0.07 3.65388,-0.44791 7.89452,1.14422 10.74645,4.03472 2.82929,2.86755 4.00407,5.68381 4.00407,9.5988 0,7.43026 -6.05592,13.48618 -13.48618,13.48618 -3.91499,0 -6.73125,-1.17478 -9.5988,-4.00407 -4.28696,-4.22976 -5.27189,-10.39208 -2.52676,-15.80887 1.03127,-2.03493 3.28394,-4.3929 5.29711,-5.54472 l 1.47669,-0.84487 -0.39493,-1.51696 c -0.21721,-0.83433 -0.42604,-1.5491 -0.46407,-1.58838 -0.038,-0.0393 -3.38451,3.80048 -7.4366,8.53281 l -7.36745,8.60423 h -3.08834 -3.08833 l -0.16821,1.26807 c -0.28775,2.16912 -1.81464,4.93752 -3.80791,6.90412 -1.99012,1.96349 -3.71325,2.9914 -6.02318,3.59306 -2.08239,0.54239 -5.43481,0.49908 -7.26679,-0.0939 z m 8.33438,-3.33661 c 2.86825,-1.37606 5.41378,-4.58449 5.87057,-7.39936 l 0.15179,-0.93538 h -5.57197 c -5.94298,0 -6.40352,-0.0967 -6.40352,-1.3446 0,-0.28218 1.0786,-2.66773 2.39689,-5.30123 1.31829,-2.63349 2.34582,-4.83924 2.28341,-4.90166 -0.0624,-0.0624 -0.84336,-0.24922 -1.73543,-0.41511 -4.35132,-0.80922 -9.22618,1.78433 -11.29549,6.00947 -0.71695,1.46386 -0.7775,1.81418 -0.7775,4.49792 0,2.70238 0.0583,3.0334 0.81539,4.63096 0.91461,1.92989 2.79588,3.9697 4.44179,4.81611 2.02489,1.0413 3.10928,1.26554 5.72303,1.18345 2.12675,-0.0668 2.75783,-0.19615 4.10104,-0.84057 z m 40.61429,-0.0303 c 2.21329,-1.03824 4.09169,-2.91717 5.12723,-5.12868 1.08129,-2.30922 1.28672,-5.70341 0.48314,-7.98266 -1.41805,-4.02211 -4.87228,-6.75911 -9.16745,-7.26392 -0.78579,-0.0924 -1.72924,-0.0925 -2.09653,-2.7e-4 l -0.66781,0.16761 0.40293,1.3877 c 0.22162,0.76324 0.93937,3.09604 1.595,5.184 1.28556,4.09406 1.32121,4.94722 0.21826,5.22404 -1.4694,0.3688 -1.58935,0.15402 -3.62484,-6.49032 l -1.37472,-4.48743 -1.02398,0.5755 c -1.36392,0.76657 -3.16914,2.73049 -3.974,4.32334 -2.90664,5.75246 -0.13207,12.681 5.98694,14.95033 1.07311,0.39797 1.91032,0.49021 3.88174,0.42765 2.15102,-0.0682 2.7617,-0.19616 4.23409,-0.88685 z m -34.78567,-12.19242 c -0.10087,-0.53767 -0.48132,-1.56551 -0.84546,-2.2841 -0.7029,-1.38711 -2.86893,-3.88208 -3.37026,-3.88208 -0.16449,0 -1.10014,1.60734 -2.07922,3.57188 l -1.78015,3.57187 h 4.12924 4.12924 z m 2.70586,-6.03389 c -1.92652,-3.8563 -3.56699,-7.01146 -3.6455,-7.01146 -0.0785,0 -0.58936,0.90262 -1.13523,2.00581 l -0.9925,2.0058 0.73604,0.55593 c 2.49202,1.88223 4.56411,5.05922 5.15011,7.89633 l 0.32201,1.55905 h 1.53392 1.53391 z m 17.47687,-7.20989 1.43764,-1.65365 H 223.1907 213.10331 l 3.71092,7.41818 3.71092,7.41818 4.93883,-5.76454 c 2.71635,-3.17049 5.58577,-6.50867 6.37647,-7.41817 z"
           id="path7307"
           inkscape:connector-curvature="0" />
        <path
           style="fill:#6a6a6a;fill-opacity:1;stroke:none;stroke-width:0.26458332;stroke-opacity:1"
           d="m 197.78903,282.87988 c -9.71265,-2.61205 -13.3405,-14.6389 -6.66784,-22.10483 3.5631,-3.9867 8.24275,-5.32916 14.17874,-4.06747 0.78703,0.16728 0.80665,0.14274 2.3157,-2.89638 l 1.52194,-3.06509 -1.17413,-2.33784 -1.17414,-2.33785 -1.6278,0.42372 c -1.62593,0.42323 -1.6284,0.423 -2.13375,-0.2009 -0.68419,-0.84468 -0.6721,-2.51651 0.0232,-3.21183 0.49377,-0.49377 0.88195,-0.52917 5.80194,-0.52917 4.43782,0 5.33852,0.0657 5.68801,0.41525 0.87221,0.8722 -0.83428,2.22595 -2.81635,2.23419 -0.47761,0.002 -1.12933,0.0736 -1.44826,0.15912 -0.57415,0.15396 -0.57031,0.17484 0.38874,2.11305 l 0.96863,1.95755 h 11.61672 11.61672 l -0.17478,-0.85989 c -0.0961,-0.47294 -0.31097,-1.64684 -0.47743,-2.60866 l -0.30265,-1.74876 -2.75467,-0.15599 c -3.02354,-0.17123 -4.26708,-0.61769 -5.19973,-1.86687 -0.4963,-0.66475 -0.50719,-0.77778 -0.13819,-1.43518 0.53251,-0.94875 1.19724,-1.03332 2.20086,-0.28001 0.74364,0.55818 1.18067,0.63437 4.32086,0.75328 1.92145,0.0728 3.61632,0.25555 3.76639,0.40619 0.15007,0.15064 0.5197,1.69845 0.8214,3.43958 0.48071,2.77416 1.80633,9.00693 2.25534,10.60409 0.14506,0.51601 0.3447,0.56013 2.58319,0.57081 7.77479,0.0371 13.67076,5.92155 13.67076,13.64406 0,7.23737 -6.16665,13.40402 -13.40402,13.40402 -8.36509,0 -14.70433,-7.22893 -13.57318,-15.47812 0.53177,-3.87804 3.45216,-8.11448 6.78632,-9.84454 1.26458,-0.65618 1.40635,-0.81277 1.26769,-1.40026 -0.38041,-1.6117 -0.68402,-2.64583 -0.77678,-2.64583 -0.0552,0 -3.28174,3.7207 -7.17004,8.26823 -3.88829,4.54753 -7.25455,8.41706 -7.48058,8.59896 -0.27346,0.22007 -1.39437,0.33073 -3.35017,0.33073 h -2.9392 l -0.32032,1.55084 c -1.01896,4.9333 -5.37869,9.29804 -10.31576,10.3276 -1.89218,0.39459 -4.64008,0.34035 -6.3734,-0.1258 z m 8.02285,-3.38083 c 2.79377,-1.28837 5.42717,-4.55207 5.86075,-7.26351 l 0.17722,-1.1083 h -5.50308 c -4.74939,0 -5.56936,-0.06 -5.98694,-0.43789 -0.26612,-0.24083 -0.48386,-0.6588 -0.48386,-0.92882 0,-0.27002 1.08074,-2.64989 2.40164,-5.2886 1.8362,-3.66811 2.3195,-4.8484 2.05279,-5.01323 -0.70978,-0.43868 -3.25928,-0.57022 -4.96394,-0.25612 -4.55572,0.83942 -8.10316,4.47321 -8.68771,8.89917 -0.97451,7.37861 4.8441,13.19722 12.22271,12.22271 0.86365,-0.11407 2.17334,-0.4855 2.91042,-0.82541 z m 40.90035,-0.17226 c 4.17077,-2.1054 6.38615,-6.42825 5.75263,-11.22504 -0.68571,-5.19188 -5.40393,-9.14535 -10.91442,-9.14535 -0.63909,0 -1.21976,0.0935 -1.29037,0.20773 -0.13605,0.22013 0.89126,3.85422 2.24452,7.93996 0.90253,2.72487 0.86863,3.65558 -0.14238,3.90932 -1.28678,0.32296 -1.65759,-0.21172 -2.90629,-4.19076 -0.64989,-2.07086 -1.37625,-4.44981 -1.61414,-5.28656 -0.23789,-0.83674 -0.53118,-1.52135 -0.65177,-1.52135 -0.45753,0 -2.9294,2.05596 -3.83095,3.18636 -4.97662,6.23987 -0.99574,16.12075 6.90233,17.13222 2.29849,0.29435 4.57857,-0.0614 6.45084,-1.00653 z m -34.93001,-11.62921 c 0,-1.61012 -1.78361,-4.6522 -3.6469,-6.22005 l -0.83195,-0.70004 -1.86338,3.71966 -1.86338,3.71967 h 4.1028 c 3.90028,0 4.10281,-0.0256 4.10281,-0.51924 z m 2.58136,-6.49222 c -1.92652,-3.8563 -3.56699,-7.01146 -3.6455,-7.01146 -0.0785,0 -0.59624,0.91653 -1.15053,2.03672 -0.95896,1.93801 -0.98421,2.05361 -0.52104,2.38539 2.50172,1.79202 5.13614,5.7993 5.52729,8.40768 l 0.17892,1.19313 h 1.55681 1.55681 z m 12.89677,-1.84464 c 3.20145,-3.73011 5.86052,-6.89485 5.90902,-7.03275 0.0546,-0.15507 -3.75596,-0.25073 -9.98802,-0.25073 -5.54191,0 -10.07621,0.0603 -10.07621,0.13412 0,0.0738 1.67879,3.49003 3.73064,7.59171 3.61078,7.21801 3.74466,7.43964 4.16718,6.89864 0.24011,-0.30743 3.05593,-3.61088 6.25739,-7.34099 z"
           id="path7305"
           inkscape:connector-curvature="0" />
        <path
           style="fill:#6a6a6a;fill-opacity:1;stroke:none;stroke-width:0.26458332;stroke-opacity:1"
           d="m 197.62701,282.8042 c -5.85328,-1.68195 -9.92187,-7.03271 -9.92187,-13.04863 0,-5.85765 3.92594,-11.19991 9.50592,-12.93526 2.09509,-0.65156 5.63016,-0.72187 7.50307,-0.14923 l 1.26627,0.38717 1.58034,-3.15257 1.58034,-3.15259 -1.20711,-2.40351 c -0.96693,-1.92527 -1.29644,-2.36907 -1.656,-2.23042 -0.24688,0.0952 -0.95553,0.30895 -1.57479,0.47501 -0.95328,0.25563 -1.19106,0.23678 -1.55078,-0.12294 -0.60372,-0.60372 -0.77254,-2.59413 -0.2763,-3.25753 0.36781,-0.4917 0.75671,-0.53502 5.49317,-0.61184 5.8894,-0.0955 6.32337,-0.0354 6.32337,0.87536 0,0.90214 -0.97267,1.46275 -2.82378,1.6275 -2.36396,0.2104 -2.3167,0.12002 -1.22088,2.33463 l 0.9857,1.99205 h 11.61672 11.61672 l -0.17289,-0.85989 c -0.0951,-0.47294 -0.30327,-1.64698 -0.46263,-2.60898 l -0.28975,-1.74908 -2.80968,-0.18165 c -2.32278,-0.15017 -3.0074,-0.29753 -3.95073,-0.85036 -1.34638,-0.78903 -1.83205,-1.6297 -1.4038,-2.4299 0.47132,-0.88068 1.29994,-0.98321 2.24052,-0.27724 0.7517,0.56419 1.14654,0.63092 4.20042,0.70985 3.25187,0.0841 3.38948,0.11096 3.9026,0.76328 0.29253,0.3719 0.53197,0.98754 0.53208,1.36809 2.1e-4,0.71876 1.82689,9.91054 2.35596,11.85511 l 0.30174,1.10902 2.44136,-8e-4 c 6.49676,-0.002 11.65221,3.97581 13.28719,10.25294 2.51472,9.65467 -6.71273,18.88213 -16.3674,16.36741 -8.64989,-2.25301 -12.77879,-11.52579 -8.70859,-19.55795 0.89291,-1.76206 3.45168,-4.38991 5.17145,-5.31106 0.76219,-0.40825 1.42061,-0.76876 1.46315,-0.80114 0.0426,-0.0324 -0.11907,-0.84091 -0.35917,-1.79673 l -0.43653,-1.73786 -7.29736,8.518 c -4.01355,4.68489 -7.4238,8.60546 -7.57833,8.71238 -0.15453,0.10691 -1.5966,0.19621 -3.20459,0.19843 l -2.92363,0.004 -0.32032,1.55084 c -1.0007,4.84491 -4.98302,8.91253 -10.00668,10.22103 -1.9893,0.51815 -4.84902,0.47849 -6.8445,-0.0949 z m 7.13508,-2.86184 c 3.39056,-1.18075 6.21619,-4.30981 6.98606,-7.73626 l 0.24241,-1.07886 h -5.57344 c -4.81485,0 -5.6393,-0.0596 -6.05729,-0.43789 -0.26612,-0.24083 -0.48386,-0.64639 -0.48386,-0.90123 0,-0.25485 1.07844,-2.63613 2.39653,-5.29175 1.81274,-3.6522 2.3128,-4.88014 2.0528,-5.04083 -0.18905,-0.11684 -0.96983,-0.29066 -1.73507,-0.38627 -5.75648,-0.71923 -11.16517,3.42059 -11.97751,9.1676 -1.11815,7.91054 6.63312,14.32301 14.14937,11.70549 z m 40.62221,-0.0112 c 3.72678,-1.21204 6.46973,-4.48124 7.11342,-8.47817 1.00805,-6.25941 -3.5953,-11.98653 -9.98664,-12.4246 -1.24303,-0.0852 -2.14395,-0.0375 -2.24042,0.11857 -0.15187,0.24574 1.25255,5.19647 2.45333,8.64823 0.29901,0.85953 0.54365,1.76381 0.54365,2.00951 0,0.72483 -0.9457,1.40814 -1.69024,1.22128 -0.75739,-0.1901 -1.10121,-1.00198 -2.96062,-6.99106 -0.66215,-2.13277 -1.25578,-3.92962 -1.31917,-3.99301 -0.29235,-0.29235 -3.16668,2.06228 -4.08795,3.34883 -1.48849,2.07865 -1.9812,3.70979 -1.97724,6.54584 0.003,2.12057 0.0952,2.57599 0.84269,4.16013 2.44932,5.19085 7.91747,7.58796 13.30919,5.83445 z m -33.60208,-12.07798 c 0,-1.71077 -1.90211,-5.09173 -3.58803,-6.37765 l -0.89757,-0.68461 -1.85824,3.70941 c -1.02203,2.04017 -1.85824,3.77053 -1.85824,3.84523 0,0.0747 1.84547,0.13581 4.10104,0.13581 h 4.10104 z m 6.08542,0.4972 c 0,-0.2705 -7.01294,-14.15651 -7.14956,-14.15651 -0.0785,0 -0.58561,0.89503 -1.1269,1.98896 l -0.98416,1.98896 1.8124,1.70973 c 1.98097,1.86875 3.17335,3.82501 3.87099,6.3509 0.24115,0.87312 0.4861,1.73632 0.54433,1.91822 0.10069,0.31455 3.0329,0.50766 3.0329,0.19974 z m 9.2334,-8.73255 c 3.36142,-3.92906 6.11184,-7.23304 6.11205,-7.34218 2.1e-4,-0.10914 -4.52399,-0.19844 -10.05379,-0.19844 -5.52979,0 -10.05416,0.0603 -10.05416,0.13412 0,0.51828 7.49118,14.96728 7.66453,14.78335 0.12084,-0.1282 2.96995,-3.44778 6.33137,-7.37685 z"
           id="path7303"
           inkscape:connector-curvature="0" />
        <path
           style="fill:#6a6a6a;fill-opacity:1;stroke:none;stroke-width:0.26458332;stroke-opacity:1"
           d="m 198.08402,282.91523 c -5.88626,-1.42546 -10.37888,-7.09067 -10.37888,-13.08782 0,-3.12763 1.37314,-6.77718 3.4129,-9.07089 1.4575,-1.63895 3.99057,-3.275 6.07382,-3.92295 2.0429,-0.6354 5.71252,-0.70106 7.59065,-0.13583 0.70757,0.21295 1.30819,0.36178 1.33472,0.33073 0.0265,-0.031 0.73069,-1.42181 1.5648,-3.09061 l 1.51656,-3.03416 -1.23208,-2.48028 c -0.85898,-1.7292 -1.34411,-2.43728 -1.60205,-2.3383 -1.35524,0.52006 -2.55872,0.69821 -3.02629,0.44797 -1.10946,-0.59376 -0.99989,-3.29441 0.15141,-3.73214 0.71379,-0.27138 9.64346,-0.34037 10.60775,-0.082 0.41046,0.11 0.59531,0.35937 0.59531,0.80307 0,0.86343 -1.74,1.66225 -3.63802,1.67019 -0.76843,0.003 -1.38906,0.12698 -1.38906,0.277 0,0.14915 0.41821,1.10165 0.92936,2.11667 l 0.92937,1.84547 h 11.63834 c 6.40109,0 11.63834,-0.0824 11.63834,-0.18321 0,-0.10077 -0.19514,-1.27572 -0.43365,-2.61101 l -0.43364,-2.42779 -1.74917,-0.16523 c -0.96204,-0.0909 -2.15806,-0.16609 -2.65782,-0.16712 -2.10887,-0.004 -4.38634,-1.93471 -3.72986,-3.16136 0.46369,-0.8664 1.26819,-0.92492 2.3556,-0.17135 0.9297,0.64428 1.17778,0.68499 4.17436,0.68499 2.74412,0 3.24631,0.0667 3.62143,0.48123 0.26166,0.28914 0.65329,1.74138 0.98107,3.63802 0.52191,3.01992 1.54198,7.8127 2.11844,9.95355 l 0.27155,1.00845 h 2.47548 c 5.48245,0 9.92769,2.74278 12.22117,7.54063 2.54911,5.33263 1.54863,11.29861 -2.58854,15.43579 -4.13718,4.13717 -10.10316,5.13765 -15.43579,2.58854 -6.88499,-3.29118 -9.5595,-11.53234 -6.02118,-18.5535 0.83309,-1.65312 4.05909,-4.85944 5.56925,-5.53529 1.24343,-0.55648 1.24871,-0.59028 0.48377,-3.09805 l -0.29643,-0.97181 -7.40833,8.63903 -7.40833,8.63904 -3.05756,0.0741 -3.05756,0.0741 -0.32038,1.55111 c -1.47983,7.16464 -9.18104,11.96695 -16.39083,10.22098 z m 4.97763,-2.5296 c 4.11615,-0.78061 7.39088,-3.70847 8.55941,-7.65277 0.23416,-0.7904 0.42575,-1.47501 0.42575,-1.52135 0,-0.0463 -2.52071,-0.0843 -5.60157,-0.0843 -4.84101,0 -5.66725,-0.0594 -6.08541,-0.43789 -0.26612,-0.24083 -0.48386,-0.59921 -0.48386,-0.79639 0,-0.19718 1.12534,-2.60682 2.50076,-5.35476 l 2.50075,-4.99625 -1.16271,-0.29277 c -6.04335,-1.52174 -12.08733,2.64441 -13.1513,9.06527 -0.88477,5.33939 3.11377,10.9869 8.53074,12.04877 1.65177,0.32378 2.35728,0.32777 3.96744,0.0224 z m 40.76519,-0.002 c 4.42777,-0.83351 7.9383,-4.42545 8.73268,-8.93519 0.54752,-3.10833 -0.5424,-6.60159 -2.81917,-9.03564 -2.14709,-2.2955 -4.83371,-3.45681 -7.99697,-3.45681 h -1.69279 l 0.17685,0.80518 c 0.0973,0.44284 0.8211,2.83079 1.60852,5.30655 0.78742,2.47577 1.43168,4.63414 1.43168,4.79639 0,0.47721 -0.83672,1.26272 -1.34503,1.26272 -0.25809,0 -0.64582,-0.17656 -0.86161,-0.39236 -0.37554,-0.37554 -1.90346,-4.74118 -3.08056,-8.80191 -0.30582,-1.05503 -0.64973,-1.91823 -0.76423,-1.91823 -0.11451,0 -0.851,0.44909 -1.63666,0.99797 -4.41741,3.08614 -5.76482,9.50941 -2.98998,14.25363 1.39746,2.38928 4.48467,4.55168 7.28513,5.10279 1.6156,0.31794 2.32774,0.32061 3.95214,0.0148 z m -31.95648,-12.10107 c 0.0657,-0.10914 -0.10248,-0.91733 -0.37363,-1.79598 -0.55685,-1.80441 -2.07636,-4.11602 -3.339,-5.07957 l -0.84637,-0.64589 -1.86561,3.72412 c -1.02609,2.04826 -1.86561,3.78524 -1.86561,3.85994 0,0.2179 8.15854,0.15627 8.29022,-0.0626 z m 5.99728,0.0674 c 0,-0.2705 -7.01294,-14.15651 -7.14956,-14.15651 -0.0785,0 -0.58413,0.89204 -1.12361,1.98232 l -0.98087,1.9823 1.96936,1.93768 c 2.16521,2.13037 3.34943,4.21477 3.89959,6.86385 l 0.31596,1.52135 h 1.53457 c 0.844,0 1.53456,-0.0589 1.53456,-0.13099 z m 9.22533,-8.73255 6.34495,-7.40833 -10.07501,-0.0693 c -5.54126,-0.0381 -10.14146,-0.003 -10.22268,0.0783 -0.19257,0.19256 7.17645,14.963 7.42113,14.87488 0.10266,-0.037 3.04188,-3.40097 6.53161,-7.47556 z"
           id="path7301"
           inkscape:connector-curvature="0" />
        <path
           style="fill:#6a6a6a;fill-opacity:1;stroke:none;stroke-width:0.26458332;stroke-opacity:1"
           d="m 199.08222,283.11528 c -4.76234,-0.79719 -9.01289,-4.39509 -10.59325,-8.96669 -2.55389,-7.38782 1.78142,-15.44694 9.40263,-17.47901 2.11288,-0.56336 5.46961,-0.44919 7.68187,0.26128 0.47248,0.15174 0.72928,-0.21376 2.1048,-2.99564 l 1.56666,-3.16847 -1.15052,-2.18903 c -0.63278,-1.20396 -1.22402,-2.27363 -1.31386,-2.37705 -0.0898,-0.10341 -0.78139,-0.007 -1.53679,0.21459 -1.64675,0.48273 -2.31217,0.23641 -2.5481,-0.94321 -0.27853,-1.39268 0.0595,-2.32798 0.95395,-2.6398 0.8606,-0.3 8.8416,-0.38957 10.21621,-0.11465 0.64448,0.1289 0.82682,0.30244 0.82682,0.78696 0,0.84991 -1.26452,1.46394 -3.36148,1.63226 -0.91608,0.0735 -1.6656,0.23943 -1.6656,0.36866 0,0.12923 0.41821,1.06543 0.92936,2.08045 l 0.92937,1.84547 h 11.63834 c 10.91258,0 11.63755,-0.0289 11.62566,-0.46302 -0.007,-0.25466 -0.21533,-1.47505 -0.46302,-2.71197 l -0.45034,-2.24896 -3.04271,-0.16363 c -1.67349,-0.09 -3.06833,-0.17929 -3.09965,-0.19844 -0.0313,-0.0192 -0.4778,-0.40433 -0.99218,-0.85597 -1.1688,-1.02621 -1.29219,-2.20255 -0.27944,-2.66399 0.56026,-0.25527 0.80327,-0.19662 1.66787,0.40255 0.9526,0.66015 1.19212,0.70135 4.07737,0.70135 4.03288,0 3.98542,-0.0413 4.70828,4.10104 0.48314,2.76865 1.8227,9.04142 2.26008,10.58334 0.13648,0.48113 0.33509,0.52087 2.18774,0.43781 1.1207,-0.0503 2.69248,0.0534 3.49285,0.23027 6.39645,1.41371 10.9766,7.53359 10.48988,14.01629 -0.25696,3.42251 -1.34215,5.88534 -3.69817,8.39301 -7.24962,7.71621 -20.09349,4.40949 -22.83687,-5.87947 -0.47279,-1.7732 -0.45119,-4.95885 0.0466,-6.86991 0.85006,-3.26359 3.27454,-6.4307 6.18854,-8.08412 1.78617,-1.01349 1.75704,-0.91569 1.05227,-3.53304 l -0.28366,-1.05341 -0.62027,0.77441 c -0.34115,0.42592 -3.6944,4.34628 -7.45168,8.71191 l -6.8314,7.9375 -3.06856,0.0742 -3.06855,0.0742 -0.33671,1.51331 c -1.11124,4.99422 -5.12237,9.06372 -10.08727,10.23403 -1.60177,0.37756 -3.79467,0.47108 -5.26704,0.22461 z m 4.28646,-2.75639 c 4.14885,-0.86802 7.48049,-4.19588 8.51371,-8.50405 l 0.1745,-0.7276 h -5.56129 c -5.20852,0 -5.59486,-0.0336 -6.09046,-0.52917 -0.29104,-0.29104 -0.52917,-0.64942 -0.52917,-0.7964 0,-0.14697 1.1296,-2.52404 2.51021,-5.28236 l 2.51021,-5.01514 -1.12114,-0.303 c -1.57332,-0.42522 -4.79268,-0.16444 -6.62041,0.53626 -1.958,0.75065 -4.33339,2.92682 -5.41993,4.96537 -2.25877,4.23789 -1.50425,9.24905 1.9061,12.6594 2.64629,2.64629 6.18784,3.7373 9.72767,2.99669 z m 42.38008,-0.51099 c 2.7541,-1.03045 5.19906,-3.45863 6.21404,-6.17141 1.61291,-4.31089 0.53192,-8.74591 -2.90797,-11.93064 -1.94116,-1.79717 -3.8282,-2.55353 -6.80802,-2.72876 l -2.21145,-0.13005 0.19545,0.88989 c 0.1075,0.48944 0.78948,2.797 1.51552,5.12791 0.72604,2.33091 1.37636,4.43538 1.44515,4.67658 0.14112,0.49481 -0.78365,1.54582 -1.36015,1.54582 -0.20789,0 -0.55985,-0.18188 -0.78214,-0.40417 -0.39511,-0.39511 -2.03641,-5.16697 -2.95513,-8.59167 -0.25374,-0.94588 -0.54903,-1.81921 -0.6562,-1.94074 -0.10716,-0.12152 -0.58378,-0.0198 -1.05915,0.226 -1.46904,0.75967 -3.40847,2.93395 -4.30476,4.82605 -0.77808,1.64252 -0.84412,1.99262 -0.83552,4.42932 0.0119,3.36963 0.62926,5.06211 2.6379,7.2317 3.16543,3.41903 7.6385,4.52828 11.87243,2.94417 z m -33.83732,-12.22639 c -0.45662,-2.21316 -2.25855,-5.16247 -3.84369,-6.2912 l -0.76754,-0.54653 -1.86003,3.713 c -1.02302,2.04214 -1.86004,3.77411 -1.86004,3.84881 0,0.0747 1.91446,0.13581 4.25435,0.13581 h 4.25436 z m 5.94195,0.52916 c -0.008,-0.1819 -1.59983,-3.48403 -3.53774,-7.33806 l -3.52349,-7.00733 -1.09269,2.17326 -1.0927,2.17327 1.94012,1.92365 c 2.17186,2.15343 3.41178,4.32531 3.90734,6.8442 l 0.30726,1.56174 h 1.55307 c 1.07368,0 1.54868,-0.10209 1.53883,-0.33073 z m 9.27571,-8.53391 6.34443,-7.40723 -10.09282,-0.0693 c -5.55105,-0.0381 -10.15926,-0.003 -10.24048,0.0783 -0.20074,0.20074 7.18133,14.95982 7.43945,14.87378 0.11274,-0.0376 3.05998,-3.40158 6.54942,-7.47556 z"
           id="path7299"
           inkscape:connector-curvature="0" />
        <path
           style="fill:#6a6a6a;fill-opacity:1;stroke:none;stroke-width:0.26458332;stroke-opacity:1"
           d="m 198.21575,282.88379 c -2.63542,-0.63852 -4.42161,-1.65672 -6.43061,-3.66572 -2.16043,-2.16043 -3.1317,-3.97971 -3.7683,-7.05838 -1.39486,-6.74572 3.02988,-13.65826 9.88575,-15.44399 2.39335,-0.62339 5.82414,-0.46211 8.19989,0.38548 0.005,0.002 0.7146,-1.42428 1.57724,-3.1689 l 1.56843,-3.17203 -1.16864,-2.38422 c -0.64276,-1.31131 -1.19787,-2.38421 -1.2336,-2.38421 -0.0357,0 -0.72992,0.1732 -1.54266,0.38489 -0.81273,0.21169 -1.64965,0.31891 -1.85982,0.23826 -0.47872,-0.1837 -0.92411,-1.73455 -0.72802,-2.53497 0.30726,-1.25422 0.35209,-1.26318 6.32108,-1.26318 5.40993,0 5.65615,0.0222 5.65615,0.51027 0,1.07896 -1.64409,1.86654 -3.90261,1.86951 -0.61846,7.9e-4 -1.12447,0.12351 -1.12447,0.27266 0,0.14915 0.41821,1.10165 0.92936,2.11667 l 0.92937,1.84547 h 11.63834 c 8.8348,0 11.63834,-0.076 11.63834,-0.3155 0,-0.17353 -0.19794,-1.42369 -0.43987,-2.77812 l -0.43986,-2.46262 h -2.40615 c -1.32339,0 -2.81312,-0.11672 -3.31053,-0.25938 -2.07544,-0.59523 -3.19203,-2.83042 -1.74361,-3.49036 0.56026,-0.25527 0.80327,-0.19662 1.66787,0.40255 0.9526,0.66015 1.19212,0.70135 4.07737,0.70135 4.05348,0 3.98672,-0.06 4.70989,4.23334 0.50015,2.96924 1.46849,7.55376 2.12364,10.05416 l 0.24264,0.92604 1.9838,-0.0867 c 7.06026,-0.3087 12.9483,4.57562 13.97051,11.58899 0.26631,1.82714 0.24936,2.47718 -0.1099,4.21458 -0.6366,3.07867 -1.60787,4.89795 -3.7683,7.05838 -2.16043,2.16043 -3.97971,3.1317 -7.05838,3.7683 -5.48643,1.13447 -11.54072,-1.73526 -14.18722,-6.72475 -3.46232,-6.52756 -1.2667,-14.58674 4.93222,-18.10404 1.78534,-1.01302 1.75664,-0.91718 1.055,-3.52287 -0.23412,-0.86946 -0.33747,-0.98204 -0.62042,-0.67588 -0.18672,0.20205 -3.5097,4.07466 -7.38439,8.6058 -3.87468,4.53114 -7.23496,8.31137 -7.46728,8.40052 -0.23231,0.0892 -1.65437,0.16209 -3.16012,0.16209 h -2.73772 l -0.3028,1.45853 c -1.5042,7.24573 -9.04333,12.03477 -16.21161,10.29802 z m 5.06805,-2.49011 c 4.03198,-0.76465 7.85533,-4.4872 8.63417,-8.40655 l 0.17088,-0.85989 h -5.57727 c -5.27086,0 -5.60709,-0.0298 -6.11997,-0.5427 -0.69226,-0.69226 -0.70362,-0.65869 2.16242,-6.3933 l 2.34249,-4.68703 -1.12121,-0.30279 c -0.61667,-0.16653 -2.09211,-0.2522 -3.27877,-0.19037 -2.69711,0.14054 -4.90482,1.14481 -6.87869,3.12905 -5.92254,5.95367 -3.19439,15.89981 4.96289,18.09343 1.72248,0.4632 2.89461,0.50311 4.70306,0.16015 z m 41.16521,-0.14703 c 4.34818,-1.13255 7.30112,-4.33429 8.13551,-8.82097 0.83131,-4.47018 -1.75615,-9.33672 -6.10159,-11.47597 -1.41461,-0.69642 -2.07913,-0.85191 -4.04163,-0.94574 -1.77611,-0.0849 -2.34866,-0.0307 -2.34866,0.22228 0,0.45901 0.88125,3.46117 2.14941,7.32241 1.13114,3.44402 1.12207,4.07976 -0.0636,4.45607 -1.00927,0.32033 -1.53039,-0.6515 -3.13546,-5.84722 -0.84826,-2.74588 -1.64995,-5.02839 -1.78152,-5.07225 -0.42473,-0.14157 -2.71036,1.5422 -3.64993,2.68881 -0.5021,0.61275 -1.24357,1.82015 -1.6477,2.68311 -0.65734,1.40365 -0.73478,1.8624 -0.73478,4.3527 0,2.59735 0.0567,2.89889 0.84723,4.50466 2.33887,4.75092 7.46736,7.20979 12.37268,5.93211 z m -32.53537,-12.62514 c -0.34976,-1.71657 -1.69835,-4.17182 -3.01419,-5.48766 -0.72895,-0.72895 -1.42237,-1.32536 -1.54094,-1.32536 -0.22815,0 -3.77837,6.96334 -3.77837,7.41083 0,0.16219 1.62157,0.26208 4.25435,0.26208 h 4.25436 z m 5.954,0.59661 c 0,-0.36488 -6.9719,-14.2888 -7.1546,-14.2888 -0.0813,0 -0.60368,0.93507 -1.16089,2.07793 l -1.0131,2.07792 1.97925,1.95697 c 2.15963,2.13532 3.32933,4.19678 3.92533,6.91791 l 0.33321,1.52135 h 1.5454 c 0.84997,0 1.5454,-0.11847 1.5454,-0.26328 z m 8.89379,-8.11792 c 3.33034,-3.88205 6.21075,-7.27533 6.4009,-7.54062 0.33287,-0.4644 -0.0386,-0.48234 -9.98742,-0.48234 h -10.33314 l 3.76754,7.54062 c 2.07216,4.14735 3.84167,7.54063 3.93226,7.54063 0.0906,0 2.88952,-3.17623 6.21986,-7.05829 z"
           id="path7297"
           inkscape:connector-curvature="0" />
        <path
           style="fill:#6a6a6a;fill-opacity:1;stroke:none;stroke-width:0.26458332;stroke-opacity:1"
           d="m 198.3972,282.92275 c -7.76026,-1.77177 -12.46268,-10.03058 -9.91971,-17.42186 2.29665,-6.67533 9.30895,-10.5326 15.98601,-8.79344 0.83804,0.21828 1.55162,0.39687 1.58575,0.39687 0.0341,0 0.76783,-1.42742 1.63047,-3.17204 l 1.56843,-3.17203 -1.16864,-2.38422 c -0.64276,-1.31131 -1.29298,-2.38292 -1.44494,-2.38135 -0.15197,0.002 -0.81209,0.16295 -1.46693,0.3586 -1.22229,0.3652 -1.83772,0.30795 -2.17876,-0.20269 -0.31433,-0.47065 -0.23044,-2.67082 0.11501,-3.01627 0.22662,-0.22662 1.89509,-0.3175 5.82914,-0.3175 4.7145,0 5.5342,0.0588 5.66771,0.40673 0.37316,0.97245 -1.72244,1.97452 -4.12926,1.97452 h -1.07641 l 1.06424,2.11667 1.06423,2.11666 h 11.72831 11.7283 l -0.47847,-2.44739 c -0.26316,-1.34607 -0.48207,-2.59622 -0.48647,-2.77813 -0.006,-0.24018 -0.67847,-0.33072 -2.45713,-0.33072 -2.90424,0 -3.99814,-0.26989 -5.00542,-1.23492 -1.74644,-1.67319 -0.27378,-3.29099 1.76602,-1.94008 0.6696,0.44345 1.24898,0.52656 3.70417,0.53132 3.92521,0.008 4.14003,0.13231 4.56691,2.65112 0.40169,2.37023 2.06861,10.3284 2.43802,11.63958 l 0.26241,0.93141 1.94936,-0.0984 c 6.05783,-0.30591 11.43487,3.35675 13.42657,9.14574 1.6309,4.74031 0.34772,10.06872 -3.30419,13.72064 -5.35159,5.35158 -13.77458,5.32598 -19.0732,-0.058 -4.06231,-4.12773 -4.97437,-10.33286 -2.30803,-15.70243 0.89818,-1.80878 3.44831,-4.43217 5.29889,-5.45111 1.54147,-0.84873 1.52219,-0.76944 0.8205,-3.37531 -0.23412,-0.86946 -0.33747,-0.98204 -0.62042,-0.67588 -0.18672,0.20205 -3.5097,4.07466 -7.38439,8.6058 -3.87468,4.53114 -7.23496,8.31137 -7.46728,8.40052 -0.23231,0.0892 -1.65437,0.16209 -3.16012,0.16209 h -2.73772 l -0.3028,1.45853 c -0.69038,3.32556 -3.3122,7.0116 -6.18455,8.69491 -2.9305,1.71739 -6.7359,2.35206 -9.84561,1.64207 z m 5.59037,-2.68115 c 1.98435,-0.51672 3.44746,-1.36937 4.98061,-2.90251 1.22244,-1.22245 2.64043,-3.79518 2.94979,-5.35196 l 0.17088,-0.85989 h -5.57727 c -5.27086,0 -5.60709,-0.0298 -6.11997,-0.5427 -0.69217,-0.69217 -0.70322,-0.65947 2.15807,-6.38461 l 2.33814,-4.67835 -0.94977,-0.31345 c -0.56737,-0.18725 -1.8828,-0.26885 -3.26709,-0.20266 -1.94502,0.093 -2.59748,0.24872 -4.0612,0.96931 -4.15821,2.04707 -6.55017,6.19917 -6.17235,10.71428 0.29284,3.49958 2.56784,6.93116 5.70284,8.60209 2.61364,1.39306 5.0257,1.6852 7.84732,0.95045 z m 42.31552,-0.60546 c 4.83681,-2.26342 7.39492,-7.48016 6.11542,-12.47113 -0.82405,-3.21436 -2.85889,-5.70065 -5.88466,-7.19023 -1.46967,-0.72352 -2.11321,-0.87618 -4.09255,-0.97081 -1.73619,-0.083 -2.34866,-0.0279 -2.34866,0.21132 0,0.44117 1.39126,5.16646 2.37374,8.06214 0.84463,2.48943 0.83955,3.13993 -0.0281,3.60431 -1.11764,0.59814 -1.60479,-0.17739 -3.10842,-4.94859 -0.77362,-2.45476 -1.49387,-4.76086 -1.60057,-5.12466 -0.28316,-0.96548 -0.78391,-0.92071 -2.26049,0.20211 -1.76643,1.34323 -3.09599,3.16282 -3.82975,5.24128 -0.50605,1.43344 -0.58765,2.10336 -0.49423,4.05731 0.0942,1.97027 0.24765,2.61615 0.97041,4.08426 0.94173,1.91293 2.65116,3.7894 4.36937,4.79634 2.87162,1.68289 6.79499,1.86124 9.81854,0.44635 z m -34.25628,-11.54169 c 0,-0.71138 -1.12773,-3.43695 -1.87554,-4.53294 -0.73264,-1.07376 -2.46164,-2.75302 -2.83457,-2.75302 -0.21334,0 -3.75656,6.98996 -3.75656,7.41083 0,0.16214 1.61443,0.26208 4.23333,0.26208 3.53832,0 4.23334,-0.0635 4.23334,-0.38695 z m 2.449,-6.88909 c -1.99933,-4.00182 -3.70162,-7.27604 -3.78285,-7.27604 -0.0812,0 -0.60562,0.93921 -1.1653,2.08714 l -1.0176,2.08714 1.95681,1.94776 c 2.16472,2.1547 3.16421,3.88277 3.84287,6.64411 l 0.43893,1.78593 h 1.68115 1.68115 z m 12.26562,-1.10516 c 3.33034,-3.88205 6.21075,-7.27533 6.4009,-7.54062 0.33287,-0.4644 -0.0386,-0.48234 -9.98742,-0.48234 h -10.33314 l 3.76754,7.54062 c 2.07216,4.14735 3.84167,7.54063 3.93226,7.54063 0.0906,0 2.88952,-3.17623 6.21986,-7.05829 z"
           id="path7295"
           inkscape:connector-curvature="0" />
        <path
           style="fill:#6a6a6a;fill-opacity:1;stroke:none;stroke-width:0.26458332;stroke-opacity:1"
           d="m 198.86544,283.01585 c -5.44026,-0.95815 -10.00735,-5.66617 -10.89663,-11.23289 -1.08265,-6.77709 3.41087,-13.49303 10.0797,-15.06499 2.16486,-0.51029 4.48166,-0.51409 6.41499,-0.0105 0.83804,0.21828 1.55162,0.39688 1.58575,0.39688 0.0341,0 0.76783,-1.42742 1.63047,-3.17204 l 1.56843,-3.17204 -1.1778,-2.4029 c -1.09443,-2.23281 -1.22481,-2.39162 -1.84182,-2.24359 -1.80632,0.43336 -2.97233,0.47489 -3.20086,0.114 -0.34455,-0.5441 -0.29078,-2.72643 0.0762,-3.09343 0.22662,-0.22662 1.89509,-0.3175 5.82914,-0.3175 4.7145,0 5.5342,0.0588 5.66771,0.40673 0.37316,0.97245 -1.72244,1.97452 -4.12926,1.97452 h -1.07641 l 1.06424,2.11667 1.06423,2.11666 h 11.7302 11.73019 l -0.32595,-1.78593 c -0.17927,-0.98227 -0.40443,-2.23242 -0.50034,-2.77813 l -0.1744,-0.99218 h -2.51005 c -2.66822,0 -3.97859,-0.35717 -5.06913,-1.38167 -1.57814,-1.48259 0.14819,-3.13554 1.86463,-1.78538 0.57625,0.45327 1.224,0.563 4.14962,0.70294 2.80986,0.13441 3.51024,0.24703 3.69611,0.59433 0.12613,0.23568 0.42805,1.61599 0.67092,3.06737 0.48868,2.92017 1.85725,9.33428 2.25776,10.58149 l 0.25655,0.79887 1.91784,-0.0947 c 4.85808,-0.23981 9.28454,2.06328 12.11248,6.30214 1.56721,2.34912 2.32682,6.10527 1.84483,9.12239 -0.91823,5.7479 -5.50354,10.33321 -11.25144,11.25144 -6.77709,1.08265 -13.49303,-3.41087 -15.06499,-10.0797 -0.78467,-3.32889 -0.40075,-6.36874 1.20648,-9.55264 1.00658,-1.99401 3.35841,-4.40541 5.21334,-5.34537 0.76018,-0.38522 1.37486,-0.87891 1.37486,-1.10425 0,-0.58935 -0.56997,-2.85566 -0.77698,-3.08944 -0.0967,-0.10925 -3.48058,3.66084 -7.51966,8.37797 -4.03908,4.71712 -7.52537,8.64627 -7.74729,8.73143 -0.22193,0.0852 -1.64166,0.15484 -3.15496,0.15484 h -2.75144 l -0.16387,0.7276 c -0.49697,2.20671 -0.76215,2.98333 -1.48323,4.34388 -0.87389,1.64888 -2.86651,3.75898 -4.71298,4.99085 -2.3277,1.55292 -6.48292,2.35364 -9.4772,1.82628 z m 5.48438,-2.86488 c 2.0464,-0.63691 4.02486,-1.90401 5.18657,-3.32173 0.9932,-1.21206 2.14231,-3.53077 2.4079,-4.85868 l 0.16866,-0.84332 h -5.30751 c -2.91914,0 -5.61293,-0.11612 -5.9862,-0.25804 -1.14596,-0.43569 -0.88348,-1.45509 1.70722,-6.63043 2.10419,-4.20346 2.33069,-4.78889 1.91823,-4.95815 -0.25722,-0.10556 -1.71783,-0.19192 -3.2458,-0.19192 -2.47384,0 -2.94725,0.0792 -4.32221,0.72337 -2.15189,1.00812 -3.53299,2.17414 -4.68344,3.95411 -2.15979,3.34162 -2.39685,7.18932 -0.65953,10.70455 2.40521,4.86662 7.7785,7.24812 12.81611,5.68024 z m 39.92096,0.22642 c 1.99875,-0.46105 3.58577,-1.37773 5.22752,-3.01949 0.88026,-0.88025 1.86432,-2.16853 2.18682,-2.86285 3.38951,-7.29749 -1.72718,-15.53865 -9.64748,-15.53865 h -2.00389 l 0.17304,0.92238 c 0.0952,0.50731 0.76902,2.79345 1.49744,5.08032 0.72843,2.28686 1.28889,4.52093 1.24547,4.9646 -0.0672,0.68687 -0.20016,0.81849 -0.89522,0.88632 -0.44896,0.0438 -0.93904,-0.0752 -1.08906,-0.26458 -0.27831,-0.35122 -1.6081,-4.31207 -2.84991,-8.4886 l -0.69085,-2.32352 -0.84547,0.47144 c -1.47119,0.82034 -3.76361,3.31128 -4.5733,4.96935 -0.71384,1.46178 -0.7753,1.818 -0.77602,4.49792 -7.9e-4,2.62976 0.0701,3.06172 0.73401,4.47943 0.9655,2.06167 2.24452,3.58931 3.88828,4.64411 2.53941,1.62954 5.66542,2.2169 8.41862,1.58182 z m -32.35083,-12.88817 c -0.31555,-1.68559 -1.48403,-3.8057 -2.90744,-5.27529 -0.7487,-0.77299 -1.47551,-1.40544 -1.61512,-1.40544 -0.13961,0 -1.11461,1.7264 -2.16667,3.83646 l -1.91284,3.83645 h 4.39391 4.39391 z m 2.57586,-6.28386 c -1.99933,-4.00182 -3.69892,-7.27604 -3.77687,-7.27604 -0.0779,0 -0.63197,0.98854 -1.23119,2.19676 l -1.08948,2.19676 0.91721,0.62848 c 2.24947,1.54136 4.49442,5.09723 5.11973,8.10935 l 0.29495,1.42073 h 1.7004 1.70041 z m 12.42366,-1.25677 c 3.40202,-3.96544 6.27646,-7.35872 6.38765,-7.54062 0.16039,-0.26239 -1.93316,-0.33073 -10.1316,-0.33073 h -10.33375 l 3.76754,7.54062 c 2.07216,4.14735 3.8479,7.54063 3.94611,7.54063 0.0982,0 2.96203,-3.24446 6.36405,-7.2099 z"
           id="path7293"
           inkscape:connector-curvature="0" />
      </g>
      <g
         id="g4586"
         inkscape:export-xdpi="100"
         inkscape:export-ydpi="100">
        <path
           d="M 99.17191,53.92853 A 25.976974,25.976974 0 0 1 75.001438,26.410579 25.976974,25.976974 0 0 1 102.3728,2.0742293 25.976974,25.976974 0 0 1 126.87414,29.298001 25.976974,25.976974 0 0 1 99.798951,53.963434"
           sodipodi:open="true"
           sodipodi:end="1.6143144"
           sodipodi:start="1.6384907"
           sodipodi:ry="25.976974"
           sodipodi:rx="25.976974"
           sodipodi:cy="28.011053"
           sodipodi:cx="100.92906"
           sodipodi:type="arc"
           id="path4562"
           style="opacity:0.97000002;fill:#bc2f00;fill-opacity:1;fill-rule:nonzero;stroke:none;stroke-width:0.46387452;stroke-linecap:butt;stroke-linejoin:round;stroke-miterlimit:4;stroke-dasharray:0.46387454, 0.92774906000000001;stroke-dashoffset:3.75;stroke-opacity:1;paint-order:normal" />
        <g
           style="fill:#ffffff;fill-opacity:1"
           transform="matrix(0.07629822,0,0,0.07629822,82.118425,10.753262)"
           id="g7376">
          <g
             style="fill:#ffffff;fill-opacity:1"
             id="g7317">
            <g
               style="fill:#ffffff;fill-opacity:1"
               id="g7315">
              <path
                 style="fill:#ffffff;fill-opacity:1"
                 inkscape:connector-curvature="0"
                 d="M 121.304,75.816 H 30.327 C 13.564,75.816 0,89.409 0,106.141 v 333.586 c 0,16.76 13.564,30.322 30.327,30.322 h 90.978 c 16.762,0 30.324,-13.562 30.324,-30.322 V 106.141 C 151.628,89.409 138.066,75.816 121.304,75.816 Z M 45.49,379.073 c -8.382,0 -15.163,-6.781 -15.163,-15.168 0,-8.377 6.781,-15.158 15.163,-15.158 8.38,0 15.161,6.781 15.161,15.158 0,8.387 -6.781,15.168 -15.161,15.168 z M 121.304,197.118 H 30.327 v -30.324 h 90.978 v 30.324 z m 0,-60.651 H 30.327 v -30.326 h 90.978 v 30.326 z"
                 id="path7309" />
              <path
                 style="fill:#ffffff;fill-opacity:1"
                 inkscape:connector-curvature="0"
                 d="m 318.423,409.396 v -30.322 h -90.98 v 30.322 c -16.759,0 -30.327,13.567 -30.327,30.331 h 151.629 c 0,-16.764 -13.562,-30.331 -30.322,-30.331 z"
                 id="path7311" />
              <path
                 style="fill:#ffffff;fill-opacity:1"
                 inkscape:connector-curvature="0"
                 d="M 454.889,15.163 H 90.978 c -16.762,0 -30.327,13.593 -30.327,30.327 H 90.978 181.956 454.89 V 288.094 H 181.955 v 60.653 h 272.934 c 16.759,0 30.322,-13.562 30.322,-30.332 V 45.489 c 0,-16.734 -13.564,-30.326 -30.322,-30.326 z M 272.933,333.584 c -8.382,0 -15.163,-6.777 -15.163,-15.169 0,-8.377 6.781,-15.158 15.163,-15.158 8.383,0 15.164,6.781 15.164,15.158 0,8.392 -6.782,15.169 -15.164,15.169 z"
                 id="path7313" />
            </g>
          </g>
          <g
             style="fill:#ffffff;fill-opacity:1"
             id="g7319" />
          <g
             style="fill:#ffffff;fill-opacity:1"
             id="g7321" />
          <g
             style="fill:#ffffff;fill-opacity:1"
             id="g7323" />
          <g
             style="fill:#ffffff;fill-opacity:1"
             id="g7325" />
          <g
             style="fill:#ffffff;fill-opacity:1"
             id="g7327" />
          <g
             style="fill:#ffffff;fill-opacity:1"
             id="g7329" />
          <g
             style="fill:#ffffff;fill-opacity:1"
             id="g7331" />
          <g
             style="fill:#ffffff;fill-opacity:1"
             id="g7333" />
          <g
             style="fill:#ffffff;fill-opacity:1"
             id="g7335" />
          <g
             style="fill:#ffffff;fill-opacity:1"
             id="g7337" />
          <g
             style="fill:#ffffff;fill-opacity:1"
             id="g7339" />
          <g
             style="fill:#ffffff;fill-opacity:1"
             id="g7341" />
          <g
             style="fill:#ffffff;fill-opacity:1"
             id="g7343" />
          <g
             style="fill:#ffffff;fill-opacity:1"
             id="g7345" />
          <g
             style="fill:#ffffff;fill-opacity:1"
             id="g7347" />
        </g>
      </g>
      <g
         id="g7389"
         transform="matrix(0.54058378,0,0,0.54058378,-134.28445,100.6203)"
         style="fill:#5e5e5e;fill-opacity:1">
        <path
           style="fill:#5e5e5e;fill-opacity:1;stroke-width:0.15525669"
           d="m 275.24684,147.13115 c -2.03963,-0.49499 -3.47655,-1.99602 -3.92183,-4.09683 -0.27767,-1.31005 -0.24094,-49.840787 0.0385,-50.877735 0.639,-2.371154 1.81379,-3.5445 4.21192,-4.206756 0.64494,-0.178103 4.9189,-0.214686 25.26039,-0.216217 17.54348,-0.0013 24.71733,0.04764 25.30684,0.172724 1.63838,0.347629 3.03933,1.334852 3.68204,2.594675 0.82144,1.610148 0.78938,0.501979 0.78739,27.217709 -0.002,20.14319 -0.0404,24.8853 -0.20921,25.51732 -0.5741,2.1492 -1.75404,3.32914 -3.90325,3.90325 -1.09847,0.29343 -50.04219,0.28565 -51.2528,-0.008 z m 15.15562,-16.70379 v -4.19193 h 4.19193 4.19193 v -4.19193 -4.19193 h 4.19193 4.19193 v -4.26956 -4.26956 h 4.11177 4.11176 l 0.0414,-4.15312 0.0413,-4.15311 4.07549,-0.0414 4.07549,-0.0414 v -2.015757 -2.015759 h -6.13264 -6.13264 v 4.114306 4.1143 h -4.1143 -4.1143 v 4.19193 4.19193 h -4.19193 -4.19194 v 4.26956 4.26956 h -4.1143 -4.1143 v 4.19193 4.19193 h -4.19193 -4.19193 v 2.09596 2.09597 h 6.13264 6.13264 z m 16.39693,3.59672 c 0.33404,-0.24198 2.07369,-1.95405 3.8659,-3.8046 l 3.25856,-3.36465 0.0818,2.13559 c 0.0867,2.2628 0.20763,2.6687 0.88748,2.97846 0.81023,0.36916 1.76762,0.002 2.04138,-0.78369 0.10794,-0.30962 0.172,-1.91752 0.17185,-4.31309 -1.6e-4,-3.32607 -0.0353,-3.88935 -0.2717,-4.36067 -0.45107,-0.89936 -0.61636,-0.92889 -5.2128,-0.93141 l -4.16506,-0.002 -0.45383,0.45383 c -0.61387,0.61387 -0.63274,1.4985 -0.0445,2.08673 0.40288,0.40288 0.44314,0.40931 2.56173,0.40931 1.18383,0 2.15242,0.0493 2.15242,0.10959 0,0.0603 -1.66719,1.78945 -3.70488,3.84261 -2.42443,2.44284 -3.72667,3.86716 -3.76792,4.12115 -0.10379,0.63898 0.0168,1.04075 0.43903,1.463 0.55517,0.55518 1.35959,0.54033 2.16054,-0.0399 z"
           id="path7405"
           inkscape:connector-curvature="0" />
        <path
           style="fill:#5e5e5e;fill-opacity:1;stroke-width:0.15525669"
           d="m 275.05345,147.04594 c -1.72649,-0.49338 -2.99032,-1.67271 -3.54952,-3.31217 -0.25875,-0.75862 -0.27849,-2.32863 -0.32161,-25.57169 -0.0334,-17.9863 0.002,-25.018381 0.13016,-25.694982 0.21755,-1.150808 0.95724,-2.576867 1.65388,-3.188519 0.70664,-0.620442 1.81286,-1.160503 2.8108,-1.372243 0.58944,-0.125066 7.72147,-0.173916 25.15158,-0.172272 26.06915,0.0025 25.34262,-0.01805 26.85665,0.758114 1.28669,0.65961 2.28757,2.116783 2.6555,3.866119 0.24608,1.169926 0.2448,49.514793 -0.001,50.676023 -0.46378,2.18806 -1.82301,3.5754 -4.01755,4.1006 -0.68809,0.16467 -5.66268,0.20328 -25.61735,0.19883 -23.46248,-0.005 -24.81528,-0.0204 -25.75115,-0.28781 z m 15.50426,-16.61858 v -4.19193 h 4.11431 4.1143 v -4.19193 -4.19193 h 4.19193 4.19193 v -4.26956 -4.26956 h 4.19193 4.19193 v -4.11173 -4.11172 l 4.07549,-0.0414 4.07549,-0.0414 0.0433,-2.057155 0.0433,-2.057151 h -6.21477 -6.21478 v 4.114306 4.1143 h -4.1143 -4.1143 v 4.19193 4.19193 h -4.19193 -4.19194 v 4.26956 4.26956 h -4.1143 -4.1143 v 4.19193 4.19193 h -4.19193 -4.19193 v 2.09596 2.09597 h 6.21027 6.21026 z m 19.66558,0.27872 3.77819,-3.75794 v 1.8717 c 0,1.02943 0.0774,2.09384 0.17209,2.36535 0.32595,0.93505 1.63882,1.24713 2.4198,0.57521 l 0.43561,-0.37478 v -4.45098 -4.45098 l -0.50703,-0.45297 -0.50704,-0.45296 h -4.27905 -4.27905 l -0.45383,0.45383 c -0.61387,0.61387 -0.63274,1.4985 -0.0445,2.08673 0.40288,0.40288 0.44314,0.40931 2.56173,0.40931 1.18383,0 2.15242,0.0493 2.15242,0.10959 0,0.0603 -1.66691,1.78945 -3.70426,3.84261 -2.33093,2.34901 -3.74126,3.88731 -3.80405,4.14919 -0.23,0.9594 0.52671,1.83504 1.58581,1.83504 h 0.69499 z"
           id="path7403"
           inkscape:connector-curvature="0" />
        <path
           style="fill:#5e5e5e;fill-opacity:1;stroke-width:0.15525669"
           d="m 275.49781,147.13204 c -1.29564,-0.29173 -1.93566,-0.6224 -2.71699,-1.40373 -0.79636,-0.79636 -1.21723,-1.65006 -1.47253,-2.98696 -0.12307,-0.6444 -0.15917,-7.96481 -0.12621,-25.58844 0.0432,-23.082256 0.0639,-24.737761 0.31932,-25.485531 0.61482,-1.800055 1.87473,-3.032818 3.66666,-3.587635 0.81457,-0.252208 2.54504,-0.270347 25.79185,-0.270347 23.34062,0 24.97459,0.01729 25.80111,0.273038 1.62428,0.502586 2.92969,1.80468 3.47389,3.465057 0.29334,0.895014 0.3014,1.592203 0.3014,26.071188 0,23.56285 -0.0172,25.20732 -0.27303,26.034 -0.54846,1.77252 -1.93335,3.02024 -3.83146,3.45195 -0.96202,0.21881 -3.76216,0.24428 -25.58018,0.2327 -18.87497,-0.01 -24.69596,-0.0572 -25.35383,-0.20529 z m 15.0599,-16.70468 v -4.19193 h 4.11431 4.1143 v -4.19193 -4.19193 h 4.19193 4.19193 v -4.26956 -4.26956 h 4.19193 4.19193 v -4.11173 -4.11172 l 4.07549,-0.0414 4.07549,-0.0414 0.0433,-2.057155 0.0433,-2.057151 h -6.21477 -6.21478 v 4.114306 4.1143 h -4.1143 -4.1143 v 4.19193 4.19193 h -4.18944 -4.18944 l -0.0413,4.23074 -0.0413,4.23075 -4.07549,0.0414 -4.07549,0.0414 v 4.18936 4.18935 h -4.19193 -4.19193 v 2.09596 2.09597 h 6.21027 6.21026 z m 19.75516,0.19535 3.68861,-3.6862 v 1.87751 c 0,1.03264 0.0774,2.09966 0.17209,2.37117 0.32594,0.935 1.63876,1.24711 2.4198,0.57529 l 0.43561,-0.3747 v -4.45099 -4.45099 l -0.50703,-0.45304 -0.50704,-0.45303 h -4.32356 -4.32357 l -0.40931,0.40931 c -0.56391,0.56391 -0.57759,1.61013 -0.0282,2.15948 0.36843,0.36843 0.45348,0.38108 2.56173,0.38108 1.19936,0 2.18065,0.053 2.18065,0.11771 0,0.0647 -1.61396,1.72405 -3.58658,3.68735 -2.00227,1.99281 -3.68591,3.79841 -3.81144,4.08753 -0.38517,0.88717 0.14022,1.86321 1.1166,2.07437 0.7753,0.16768 1.26503,-0.21759 4.92167,-3.87185 z"
           id="path7401"
           inkscape:connector-curvature="0" />
        <path
           style="fill:#5e5e5e;fill-opacity:1;stroke-width:0.15525669"
           d="m 275.67177,147.1767 c -1.71176,-0.28716 -3.2545,-1.44781 -3.93923,-2.9636 -0.58199,-1.28835 -0.59534,-1.94818 -0.54898,-27.13782 0.0423,-23.008428 0.063,-24.660231 0.31841,-25.408827 0.58344,-1.710301 1.87311,-2.999957 3.58334,-3.583308 0.74849,-0.255305 2.38852,-0.275945 25.17595,-0.316836 16.26841,-0.02919 24.72322,0.0098 25.42139,0.117231 2.75773,0.424356 4.33213,2.023189 4.77214,4.846169 0.12831,0.823249 0.16377,7.867811 0.12919,25.665261 l -0.0477,24.53055 -0.34328,0.90896 c -0.6052,1.60248 -1.49246,2.48975 -3.09494,3.09495 l -0.90896,0.34328 -24.84108,0.0221 c -14.16729,0.0126 -25.19994,-0.0382 -25.67628,-0.11807 z m 14.84962,-16.71053 0.0413,-4.23074 h 4.18944 4.18944 v -4.19193 -4.19193 h 4.1143 4.1143 v -4.26956 -4.26956 h 4.19193 4.19193 v -4.1143 -4.11431 h 4.1143 4.11431 v -2.095961 -2.095965 h -6.21027 -6.21027 v 4.114306 4.1143 h -4.11177 -4.11176 l -0.0413,4.15311 -0.0414,4.15312 -4.15063,0.0414 -4.15062,0.0413 -0.0413,4.22822 -0.0413,4.22821 -4.15312,0.0414 -4.15312,0.0413 v 4.18939 4.1894 h -4.1143 -4.1143 v 2.17537 2.17538 l 6.17145,-0.0406 6.17146,-0.0406 z m 15.68386,3.99786 c 0.13845,0 1.94924,-1.69234 4.02398,-3.76076 l 3.77225,-3.76077 v 1.87452 c 0,1.03098 0.0751,2.08993 0.16687,2.35321 0.36186,1.03803 1.68896,1.3066 2.49137,0.50418 l 0.46077,-0.46077 -0.0457,-4.36514 -0.0458,-4.36513 -0.50703,-0.45282 -0.50704,-0.45282 h -4.32356 -4.32357 l -0.40931,0.40931 c -0.31046,0.31046 -0.40932,0.56459 -0.40932,1.05225 0,1.33169 0.64311,1.64136 3.41144,1.6427 l 1.78125,9.4e-4 -3.7446,3.76497 c -4.0364,4.05838 -4.19449,4.28233 -3.69911,5.2403 0.25797,0.49887 1.07591,0.97759 1.44862,0.84787 0.11373,-0.0396 0.32005,-0.072 0.4585,-0.072 z"
           id="path7399"
           inkscape:connector-curvature="0" />
        <path
           style="fill:#5e5e5e;fill-opacity:1;stroke-width:0.15525669"
           d="m 275.81495,147.17358 c -2.52839,-0.41916 -4.07858,-2.01636 -4.49974,-4.6362 -0.10788,-0.67102 -0.16082,-9.02065 -0.15799,-24.9187 0.005,-25.53015 0.002,-25.431759 0.75814,-26.914394 0.77068,-1.510662 2.33368,-2.527509 4.32854,-2.816036 1.48141,-0.214266 48.07446,-0.205625 49.40183,0.0092 2.77392,0.448858 4.3584,2.032991 4.80363,4.802571 0.2304,1.433202 0.22628,48.371099 -0.004,49.857709 -0.22227,1.43256 -0.64772,2.35711 -1.45716,3.16654 -0.80943,0.80943 -1.73397,1.23488 -3.16653,1.45715 -1.35789,0.21068 -48.733,0.20329 -50.00635,-0.008 z m 14.74276,-16.66859 v -4.26956 h 4.19193 4.19194 v -4.19193 -4.19193 h 4.1118 4.11181 l 0.0413,-4.23075 0.0413,-4.23074 4.15312,-0.0413 4.15311,-0.0414 v -4.11177 -4.11177 h 4.11869 4.11868 l -0.0432,-2.134775 -0.0432,-2.13478 h -6.13264 -6.13264 l -0.0413,4.153115 -0.0414,4.15312 h -4.18939 -4.1894 v 4.19193 4.19193 h -4.11181 -4.11181 l -0.0413,4.23074 -0.0413,4.23075 -4.15312,0.0414 -4.15312,0.0413 v 4.18939 4.1894 h -4.1143 -4.1143 v 2.17359 2.1736 h 6.21027 6.21026 z m 15.64754,3.95904 c 0.13845,0 1.94378,-1.6869 4.01185,-3.74867 l 3.76012,-3.74868 0.0509,2.20993 c 0.0508,2.20218 0.0525,2.21124 0.48656,2.58425 0.63941,0.54945 1.5427,0.51586 2.13806,-0.0795 l 0.45383,-0.45382 v -4.21873 c 0,-3.60638 -0.0364,-4.28041 -0.25097,-4.6436 -0.48546,-0.82182 -0.64889,-0.85596 -4.38891,-0.91676 -3.85064,-0.0626 -4.89548,0.0163 -5.41286,0.40888 -0.74329,0.56395 -0.70103,1.9668 0.0745,2.47541 0.33108,0.21711 0.83906,0.28358 2.49885,0.32701 l 2.08328,0.0545 -3.73432,3.74929 c -2.48513,2.49509 -3.7709,3.89759 -3.84369,4.19262 -0.1554,0.62989 0.27769,1.4598 0.90419,1.73265 0.27679,0.12054 0.5963,0.18678 0.71002,0.1472 0.11373,-0.0396 0.32005,-0.072 0.4585,-0.072 z"
           id="path7397"
           inkscape:connector-curvature="0" />
        <path
           style="fill:#5e5e5e;fill-opacity:1;stroke-width:0.15525669"
           d="m 275.90735,147.18141 c -2.67248,-0.39572 -4.23357,-2.05251 -4.60829,-4.8908 -0.10848,-0.82169 -0.14703,-9.244 -0.11648,-25.44821 l 0.0457,-24.220045 0.41016,-1.122053 c 0.6451,-1.764762 1.64352,-2.752915 3.37689,-3.342159 l 1.0259,-0.348746 23.98716,-0.04423 c 15.50477,-0.02859 24.44617,0.01134 25.28518,0.112911 3.07708,0.372518 4.73462,1.994118 5.13863,5.027209 0.21887,1.643251 0.22335,47.938943 0.005,49.511703 -0.32232,2.31933 -1.43105,3.77827 -3.41393,4.49232 l -1.00916,0.3634 -24.60819,0.0217 c -13.5345,0.012 -25.01775,-0.0389 -25.51833,-0.11303 z m 14.65036,-16.67642 v -4.26956 h 4.19193 4.19194 v -4.19193 -4.19193 h 4.1143 4.1143 v -4.1894 -4.18939 l 4.15312,-0.0413 4.15311,-0.0414 0.0414,-4.15312 0.0413,-4.15312 h 4.11177 4.11177 v -2.173589 -2.173594 h -6.21027 -6.21027 v 4.191933 4.19193 h -4.19193 -4.19193 v 4.19193 4.19193 h -4.19193 -4.19193 v 4.26956 4.26956 h -4.1143 -4.11431 v 4.19193 4.19193 h -4.1143 -4.1143 v 2.17359 2.1736 h 6.21027 6.21026 z m 15.63201,3.95167 c 0.24038,-0.0894 2.09089,-1.81259 4.11223,-3.82922 l 3.67517,-3.66659 0.051,2.21284 c 0.0508,2.20536 0.0525,2.21411 0.48661,2.58717 0.63941,0.54945 1.5427,0.51586 2.13806,-0.0795 l 0.45383,-0.45382 v -4.21159 c 0,-4.58076 -0.0439,-4.84945 -0.86417,-5.28845 -0.34263,-0.18336 -1.22579,-0.22739 -4.56133,-0.22739 -3.66944,0 -4.18301,0.0305 -4.54887,0.27023 -0.55173,0.36151 -0.79425,1.2362 -0.5228,1.88559 0.3665,0.87678 0.56416,0.94435 2.93542,1.00352 l 2.17225,0.0542 -3.75276,3.75511 c -3.17237,3.17434 -3.76493,3.83829 -3.8314,4.29298 -0.10284,0.70334 0.19529,1.24932 0.8658,1.58561 0.63686,0.31942 0.62839,0.31864 1.19097,0.10931 z"
           id="path7395"
           inkscape:connector-curvature="0" />
        <path
           style="fill:#5e5e5e;fill-opacity:1;stroke-width:0.15525669"
           d="m 276.04934,147.17507 c -2.79375,-0.36411 -4.33785,-1.94405 -4.73312,-4.84299 -0.21497,-1.57663 -0.22161,-47.651748 -0.007,-49.304212 0.32963,-2.539278 1.4866,-4.047596 3.72391,-4.854745 l 1.00819,-0.363726 23.83191,-0.04749 c 16.22224,-0.03232 24.30285,0.0056 25.30684,0.118774 2.77031,0.31228 4.27161,1.447188 5.00665,3.784776 l 0.3497,1.11215 v 24.918703 c 0,23.07808 -0.0196,24.982 -0.26563,25.77566 -0.55206,1.78095 -1.67059,2.92282 -3.46053,3.53272 -0.71717,0.24438 -2.63813,0.26628 -25.22921,0.28774 -13.85639,0.0132 -24.92036,-0.0377 -25.5316,-0.11736 z m 14.50837,-16.67008 v -4.26956 h 4.19193 4.19194 v -4.19193 -4.19193 h 4.1143 4.1143 v -4.19193 -4.19193 h 4.19193 4.19193 v -4.19194 -4.19193 h 4.1143 4.11431 v -2.173589 -2.173594 h -6.21027 -6.21027 v 4.191933 4.19193 h -4.19193 -4.19193 v 4.19193 4.19193 h -4.19193 -4.19193 v 4.18935 4.18935 l -4.07549,0.0414 -4.07549,0.0414 -0.0413,4.23074 -0.0413,4.23075 h -4.1118 -4.11181 v 2.17359 2.1736 h 6.21027 6.21026 z m 15.63201,3.95167 c 0.24038,-0.0894 2.09637,-1.81807 4.12441,-3.84139 l 3.68735,-3.67876 v 2.14551 2.14551 l 0.45382,0.45382 c 0.62386,0.62386 1.64243,0.64409 2.242,0.0445 l 0.40931,-0.40931 v -4.39171 -4.3917 l -0.45644,-0.45644 c -0.25104,-0.25104 -0.67897,-0.50094 -0.95095,-0.55534 -0.27198,-0.0544 -2.12986,-0.0989 -4.12862,-0.0989 -4.17024,0 -4.5661,0.0812 -4.95705,1.0169 -0.18435,0.44121 -0.19861,0.67241 -0.0662,1.07361 0.3257,0.98687 0.57791,1.08622 2.9113,1.14681 l 2.10103,0.0546 -2.23758,2.27429 c -5.07156,5.15476 -5.25705,5.36498 -5.25705,5.95777 0,0.80324 0.74047,1.62221 1.50364,1.66304 0.10118,0.005 0.38065,-0.0633 0.62103,-0.15279 z"
           id="path7393"
           inkscape:connector-curvature="0" />
        <path
           style="fill:#5e5e5e;fill-opacity:1;stroke-width:0.15525669"
           d="m 276.2741,147.18927 c -2.58,-0.30745 -4.06227,-1.48939 -4.76307,-3.79798 -0.26844,-0.88431 -0.28277,-2.18312 -0.28277,-25.61735 0,-20.534476 0.0362,-24.829415 0.21532,-25.539727 0.68576,-2.719437 2.29608,-4.021546 5.38202,-4.35192 1.04549,-0.111928 9.19378,-0.148613 25.22111,-0.113552 20.90738,0.04574 23.76744,0.08009 24.45293,0.293739 1.16303,0.362482 1.75348,0.711273 2.49407,1.473283 0.81481,0.838372 1.27917,2.004623 1.47453,3.703322 0.20661,1.796465 0.19012,47.318705 -0.0177,48.991855 -0.38604,3.10727 -1.90077,4.59745 -5.03854,4.95689 -1.64526,0.18847 -47.55709,0.18981 -49.13785,0.001 z m 14.28361,-16.68428 v -4.26956 h 4.19193 4.19194 v -4.19193 -4.19193 h 4.1143 4.1143 v -4.19193 -4.19193 h 4.19193 4.19193 v -4.19194 -4.19193 h 4.1143 4.11431 v -2.173589 -2.173594 h -6.21027 -6.21027 v 4.191933 4.19193 h -4.19193 -4.19193 v 4.11177 4.11176 l -4.15312,0.0414 -4.15311,0.0413 -0.0413,4.23075 -0.0413,4.23074 h -4.11181 -4.11181 v 4.26956 4.26956 h -4.1143 -4.1143 v 2.17359 2.1736 h 6.21027 6.21026 z m 19.67326,0.19962 3.77051,-3.76815 v 2.11265 c 0,1.89904 0.0324,2.15383 0.32028,2.51983 0.34239,0.43528 1.0909,0.70547 1.65543,0.59755 0.62509,-0.11949 1.10158,-0.76363 1.21065,-1.63657 0.0554,-0.44336 0.0772,-2.37699 0.0486,-4.29694 -0.05,-3.34842 -0.0667,-3.51119 -0.40818,-3.98996 -0.22026,-0.3088 -0.57548,-0.56009 -0.93154,-0.65898 -0.32,-0.0889 -2.21487,-0.16022 -4.26786,-0.1607 -4.23665,-9.3e-4 -4.62313,0.0775 -5.01643,1.01879 -0.29154,0.69776 -0.1747,1.30546 0.34499,1.79428 0.36635,0.34459 0.53068,0.37219 2.50111,0.42013 l 2.109,0.0513 -3.49719,3.5196 c -1.92346,1.93577 -3.61151,3.69233 -3.75122,3.90346 -0.35059,0.52979 -0.31784,1.27859 0.0779,1.78172 0.42631,0.54197 0.85437,0.71895 1.5256,0.63078 0.45951,-0.0604 1.08723,-0.61967 4.30837,-3.8388 z"
           id="path7391"
           inkscape:connector-curvature="0" />
      </g>
    </g>
  </g>
</svg>
