<svg xmlns="http://www.w3.org/2000/svg" viewBox="0 0 20.215 22.363">
  <defs>
    <style>
      .cls-1 {
        opacity: 0.992;
      }

      .cls-2 {
        fill: #434a54;
      }
    </style>
  </defs>
  <g id="path4847_1_" class="cls-1" transform="translate(0 0.063)">
    <path id="Tracé_805" data-name="Tracé 805" class="cls-2" d="M19.3,5.4a9.189,9.189,0,0,0-.9-3.7C16.5-.6,3.3-.7,1.8,1.7A11.512,11.512,0,0,0,1,5.5,1.028,1.028,0,0,0,0,6.6V8.8a.993.993,0,0,0,.7,1c-.1,3.4,0,7,.1,8.8,0,1.3.9,1.2.9,1.2h.9v1.5c0,.6.6,1,1.3,1a1.233,1.233,0,0,0,1.3-1V19.8H15.3v1.5c0,.6.6,1,1.3,1a1.233,1.233,0,0,0,1.3-1V19.8h.3s1.1.1,1.2-.5c0-1.8.1-5.7,0-9.4a1.187,1.187,0,0,0,.8-1V6.6A1.033,1.033,0,0,0,19.3,5.4ZM5,2.1H15.2V3.6H5ZM5.1,18a1.5,1.5,0,0,1,0-3,1.5,1.5,0,0,1,0,3Zm10,0a1.5,1.5,0,1,1,1.5-1.5A1.612,1.612,0,0,1,15.1,18Zm1.8-6.4H3.2V4.4H16.9Z"/>
  </g>
</svg>
