<svg xmlns="http://www.w3.org/2000/svg" viewBox="0 0 21.618 21.672">
  <defs>
    <style>
      .cls-1 {
        fill: #434a54;
        opacity: 0.984;
      }
    </style>
  </defs>
  <g id="Groupe_865" data-name="Groupe 865" transform="translate(0.075)">
    <path id="path4420_2_" class="cls-1" d="M21.246,18.317,12.812,9.882,2.845,0H2.078l-.17.426A6.655,6.655,0,0,0,1.4,3.493a4.346,4.346,0,0,0,1.278,2.9l7.753,7.753,1.022-1.022,7.156,8.008a1.877,1.877,0,0,0,2.641,0A2.188,2.188,0,0,0,21.246,18.317Z" transform="translate(-0.215)"/>
    <path id="path4426_2_" class="cls-1" d="M6.549,14.4.5,20.449a1.8,1.8,0,0,0,0,2.641,1.877,1.877,0,0,0,2.641,0L9.19,17.041Z" transform="translate(0 -2.132)"/>
    <path id="path4432_2_" class="cls-1" d="M22.686,3.578,19.278,6.986l-.937-.937,3.408-3.408L20.812,1.7,17.4,5.112l-.937-.937L19.875.767,19.023,0,14.508,4.515A3.507,3.507,0,0,0,13.57,6.56a1.579,1.579,0,0,1-.17.6l2.9,2.9a5.429,5.429,0,0,1,.6-.17,3.059,3.059,0,0,0,2.045-.937L23.453,4.43Z" transform="translate(-1.995)"/>
  </g>
</svg>
