<?xml version="1.0" encoding="utf-8"?>
<!-- Generator: Adobe Illustrator 24.1.1, SVG Export Plug-In . SVG Version: 6.00 Build 0)  -->
<svg version="1.1" id="Calque_1" xmlns="http://www.w3.org/2000/svg" xmlns:xlink="http://www.w3.org/1999/xlink" x="0px" y="0px"
	 viewBox="0 0 800 800" style="enable-background:new 0 0 800 800;" xml:space="preserve">
<style type="text/css">
	.st0{fill:#073662;}
	.st1{fill:none;}
</style>
<g id="SVGRepo_bgCarrier">
</g>
<g id="SVGRepo_tracerCarrier">
</g>
<path class="st0" d="M122.3,346.3H89C89.1,548.7,253.2,712.8,455.6,713v-33.3C271.7,679.3,122.6,530.3,122.3,346.3z M255.6,346.3
	h-33.3c0.1,128.8,104.5,233.2,233.3,233.3v-33.3C345.2,546.2,255.7,456.7,255.6,346.3z M755.6,522.6l-150-150L572.3,406l-43-43
	l66.7-66.7L505.6,206L439,272.6l-43-43l33.3-33.3l-150-150h-14L182,129.6l157,157l33.3-33.3l43,43L348.6,363l90.3,90.3l66.7-66.7
	l43,43L515.3,463l157,157l83.3-83.3V522.6z"/>
<path class="st1" d="M0,0h800v800H0V0z"/>
</svg>
