<svg xmlns="http://www.w3.org/2000/svg" viewBox="0 0 24 24">
  <defs>
    <style>
      .cls-1 {
        fill: #434a54;
      }
    </style>
  </defs>
  <path id="Tracé_799" data-name="Tracé 799" class="cls-1" d="M22.9,6.9c-1.4,5.3-6.1,10-12.5,12.4a15.637,15.637,0,0,0,5.8,3.9A11.873,11.873,0,0,0,24,12a12.626,12.626,0,0,0-1.1-5.1M7.6,13.6A8.381,8.381,0,0,0,9,17.7c6.8-2.4,11.6-7.6,12.5-13.1a10.618,10.618,0,0,0-2.9-2.7c-1.5,6.9-7.7,10.4-11,11.7m-2-1a8.323,8.323,0,0,0-5.3-3A9.863,9.863,0,0,0,0,12,12.035,12.035,0,0,0,12,24a7.569,7.569,0,0,0,1.5-.1c-3.3-1.3-8.1-5.7-7.9-11.3m1.8-1.1A17.7,17.7,0,0,0,11.6,9C9.4,6.2,6.4,4,3.3,3.7a11.779,11.779,0,0,0-2.5,4,10.414,10.414,0,0,1,6.6,3.8M5,2.3A11.525,11.525,0,0,1,12,0a11.791,11.791,0,0,1,4.6.9,12.337,12.337,0,0,1-3.5,6.8A15.365,15.365,0,0,0,5,2.3"/>
</svg>
